<svg width="28" height="28" viewBox="0 0 28 28" fill="none" xmlns="http://www.w3.org/2000/svg">
<path d="M10.6676 24.2457V20.6677C10.6676 19.761 11.4049 19.0244 12.3181 19.0187H15.6713C16.5886 19.0187 17.3323 19.757 17.3323 20.6677V20.6677V24.2353C17.3323 25.0217 17.9713 25.6609 18.7634 25.6665H21.0511C22.1195 25.6693 23.1452 25.2498 23.9017 24.5007C24.6581 23.7516 25.0833 22.7345 25.0833 21.6737V11.5101C25.0833 10.6532 24.7007 9.84042 24.0387 9.29067L16.2668 3.1199C14.9082 2.04056 12.9679 2.07543 11.6496 3.20287L4.04481 9.29067C3.35149 9.82421 2.9371 10.6394 2.91663 11.5101V21.6633C2.91663 23.8742 4.7219 25.6665 6.94883 25.6665H9.1843C9.56566 25.6693 9.93236 25.5208 10.203 25.2541C10.4737 24.9873 10.6259 24.6243 10.6259 24.2457H10.6676Z" fill="#151718"/>
</svg>
