<svg width="28" height="28" viewBox="0 0 28 28" fill="none" xmlns="http://www.w3.org/2000/svg">
<g clip-path="url(#clip0_73_251)">
<path d="M14.564 24.308C13.9731 24.3078 13.3831 24.2596 12.8 24.164C9.94768 23.696 7.39777 22.115 5.71029 19.7682C4.02281 17.4215 3.33574 14.501 3.79999 11.648C4.05977 10.0239 4.68587 8.48023 5.63083 7.134C6.57579 5.78777 7.81481 4.67432 9.25399 3.87805C9.49679 3.74238 9.77345 3.67931 10.0511 3.69632C10.3287 3.71334 10.5956 3.80974 10.82 3.97405C11.0494 4.131 11.2282 4.35123 11.3347 4.60794C11.4412 4.86466 11.4709 5.1468 11.42 5.42005L10.64 5.36005L11.378 5.49205C10.9616 7.70064 11.3507 9.98531 12.4747 11.9316C13.5986 13.8779 15.383 15.3568 17.504 16.1C19.1374 16.6669 20.8946 16.7769 22.586 16.418C22.8536 16.3655 23.1306 16.3888 23.3857 16.4853C23.6408 16.5817 23.8639 16.7475 24.0298 16.964C24.1957 17.1804 24.2979 17.4389 24.3248 17.7103C24.3517 17.9817 24.3022 18.2552 24.182 18.5C23.2566 20.2497 21.8726 21.7145 20.1783 22.7376C18.484 23.7608 16.5432 24.3036 14.564 24.308ZM9.90199 5.23405C8.75436 5.88477 7.75653 6.76973 6.97336 7.8314C6.19019 8.89307 5.63922 10.1077 5.35626 11.3962C5.07331 12.6848 5.06471 14.0185 5.33101 15.3106C5.59732 16.6028 6.13258 17.8244 6.90199 18.896C7.82934 20.1924 9.07122 21.2314 10.5108 21.9156C11.9504 22.5997 13.5403 22.9064 15.1311 22.8068C16.7218 22.7072 18.2611 22.2046 19.604 21.3462C20.947 20.4878 22.0496 19.3019 22.808 17.9C20.8781 18.288 18.8797 18.1555 17.018 17.516C14.5615 16.6547 12.494 14.9433 11.1889 12.6909C9.88393 10.4384 9.42746 7.79358 9.90199 5.23405Z" fill="#151718"/>
</g>
<defs>
<clipPath id="clip0_73_251">
<rect width="21" height="21" fill="white" transform="translate(3.5 3.5)"/>
</clipPath>
</defs>
</svg>
