<svg width="28" height="28" viewBox="0 0 28 28" fill="none" xmlns="http://www.w3.org/2000/svg">
<path fill-rule="evenodd" clip-rule="evenodd" d="M2.33337 12.4483C2.33337 6.86197 6.81377 2.33337 12.3406 2.33337C14.9947 2.33337 17.5401 3.39905 19.4168 5.29596C21.2935 7.19288 22.3479 9.76565 22.3479 12.4483C22.3479 18.0346 17.8675 22.5632 12.3406 22.5632C6.81377 22.5632 2.33337 18.0346 2.33337 12.4483ZM22.1822 20.5966L25.1627 23.0025H25.2144C25.8174 23.6119 25.8174 24.6001 25.2144 25.2095C24.6114 25.819 23.6338 25.819 23.0308 25.2095L20.5575 22.3749C20.3237 22.1393 20.1922 21.8194 20.1922 21.4857C20.1922 21.1521 20.3237 20.8322 20.5575 20.5966C21.0084 20.1488 21.7313 20.1488 22.1822 20.5966Z" fill="#151718"/>
</svg>
