<svg width="28" height="28" viewBox="0 0 28 28" fill="none" xmlns="http://www.w3.org/2000/svg">
<path fill-rule="evenodd" clip-rule="evenodd" d="M23.8026 15.8433C24.2199 16.0649 24.5418 16.4149 24.7683 16.7649C25.2095 17.4883 25.1737 18.3749 24.7445 19.1566L23.9099 20.5566C23.4687 21.3033 22.6461 21.7699 21.7995 21.7699C21.3822 21.7699 20.9172 21.6533 20.5357 21.4199C20.2257 21.2216 19.868 21.1516 19.4865 21.1516C18.3061 21.1516 17.3166 22.1199 17.2808 23.2749C17.2808 24.6166 16.1839 25.6666 14.8128 25.6666H13.1912C11.8082 25.6666 10.7113 24.6166 10.7113 23.2749C10.6875 22.1199 9.69786 21.1516 8.5175 21.1516C8.12404 21.1516 7.76636 21.2216 7.46829 21.4199C7.08676 21.6533 6.60984 21.7699 6.20447 21.7699C5.34602 21.7699 4.52335 21.3033 4.0822 20.5566L3.25953 19.1566C2.81838 18.3983 2.79454 17.4883 3.23568 16.7649C3.42645 16.4149 3.78413 16.0649 4.18951 15.8433C4.52335 15.6799 4.73796 15.4116 4.94065 15.0966C5.53679 14.0933 5.1791 12.7749 4.16566 12.1799C2.9853 11.5149 2.60377 10.0333 3.28337 8.87825L4.0822 7.50159C4.77373 6.34659 6.25216 5.93825 7.44444 6.61492C8.48173 7.17492 9.82901 6.80159 10.4371 5.80992C10.6278 5.48325 10.7351 5.13325 10.7113 4.78325C10.6875 4.32825 10.8186 3.89659 11.0451 3.54659C11.4863 2.82325 12.2851 2.35659 13.1555 2.33325H14.8366C15.7189 2.33325 16.5177 2.82325 16.9589 3.54659C17.1735 3.89659 17.3166 4.32825 17.2808 4.78325C17.2569 5.13325 17.3642 5.48325 17.555 5.80992C18.1631 6.80159 19.5104 7.17492 20.5596 6.61492C21.7399 5.93825 23.2303 6.34659 23.9099 7.50159L24.7087 8.87825C25.4002 10.0333 25.0187 11.5149 23.8264 12.1799C22.813 12.7749 22.4553 14.0933 23.0634 15.0966C23.2541 15.4116 23.4687 15.6799 23.8026 15.8433ZM10.6279 14.0116C10.6279 15.8433 12.1421 17.3016 14.014 17.3016C15.8859 17.3016 17.3643 15.8433 17.3643 14.0116C17.3643 12.1799 15.8859 10.7099 14.014 10.7099C12.1421 10.7099 10.6279 12.1799 10.6279 14.0116Z" fill="#151718"/>
</svg>
