<svg width="14" height="15" viewBox="0 0 14 15" fill="none" xmlns="http://www.w3.org/2000/svg">
<circle cx="7.20541" cy="7.57845" r="6.20541" fill="#66B5FF" stroke="#66B5FF" stroke-width="0.775676"/>
<mask id="path-2-outside-1_2393_6579" maskUnits="userSpaceOnUse" x="3.23385" y="2.51865" width="8.48528" height="8.48528" fill="black">
<rect fill="white" x="3.23385" y="2.51865" width="8.48528" height="8.48528"/>
<path fill-rule="evenodd" clip-rule="evenodd" d="M6.45638 9.60365C6.46408 9.61282 6.47225 9.62172 6.48087 9.63035C6.64323 9.7927 6.90646 9.7927 7.06882 9.63035L10.181 6.51819C10.3433 6.35583 10.3433 6.0926 10.181 5.93024C10.0186 5.76788 9.75538 5.76788 9.59302 5.93024L6.77594 8.74732L5.36651 7.33789C5.20416 7.17553 4.94092 7.17553 4.77856 7.33789C4.61621 7.50025 4.61621 7.76348 4.77856 7.92584L6.45638 9.60365Z"/>
</mask>
<path fill-rule="evenodd" clip-rule="evenodd" d="M6.45638 9.60365C6.46408 9.61282 6.47225 9.62172 6.48087 9.63035C6.64323 9.7927 6.90646 9.7927 7.06882 9.63035L10.181 6.51819C10.3433 6.35583 10.3433 6.0926 10.181 5.93024C10.0186 5.76788 9.75538 5.76788 9.59302 5.93024L6.77594 8.74732L5.36651 7.33789C5.20416 7.17553 4.94092 7.17553 4.77856 7.33789C4.61621 7.50025 4.61621 7.76348 4.77856 7.92584L6.45638 9.60365Z" fill="#FFFFFF"/>
<path d="M6.45638 9.60365L6.57553 9.50342L6.56607 9.49396L6.45638 9.60365ZM7.06882 9.63035L7.17852 9.74004L7.06882 9.63035ZM10.181 6.51819L10.2907 6.62789L10.181 6.51819ZM10.181 5.93024L10.2907 5.82054L10.181 5.93024ZM9.59302 5.93024L9.48333 5.82054L9.48333 5.82054L9.59302 5.93024ZM6.77594 8.74732L6.66625 8.85702L6.77594 8.96671L6.88564 8.85702L6.77594 8.74732ZM5.36651 7.33789L5.47621 7.22819L5.47621 7.22819L5.36651 7.33789ZM4.77856 7.92584L4.66887 8.03554L4.66887 8.03554L4.77856 7.92584ZM6.59057 9.52065C6.58509 9.51518 6.57994 9.50955 6.57509 9.50379L6.33766 9.70352C6.34823 9.71608 6.3594 9.72827 6.37117 9.74004L6.59057 9.52065ZM6.95912 9.52065C6.85735 9.62242 6.69234 9.62242 6.59057 9.52065L6.37117 9.74004C6.59411 9.96298 6.95557 9.96298 7.17852 9.74004L6.95912 9.52065ZM10.0713 6.4085L6.95912 9.52065L7.17852 9.74004L10.2907 6.62789L10.0713 6.4085ZM10.0713 6.03994C10.1731 6.14171 10.1731 6.30672 10.0713 6.4085L10.2907 6.62789C10.5136 6.40495 10.5136 6.04349 10.2907 5.82054L10.0713 6.03994ZM9.70272 6.03994C9.80449 5.93816 9.9695 5.93816 10.0713 6.03994L10.2907 5.82054C10.0677 5.5976 9.70627 5.5976 9.48333 5.82054L9.70272 6.03994ZM6.88564 8.85702L9.70272 6.03994L9.48333 5.82054L6.66625 8.63762L6.88564 8.85702ZM5.25682 7.44759L6.66625 8.85702L6.88564 8.63762L5.47621 7.22819L5.25682 7.44759ZM4.88826 7.44759C4.99003 7.34581 5.15504 7.34581 5.25682 7.44759L5.47621 7.22819C5.25327 7.00525 4.89181 7.00525 4.66887 7.22819L4.88826 7.44759ZM4.88826 7.81615C4.78649 7.71437 4.78649 7.54936 4.88826 7.44759L4.66887 7.22819C4.44592 7.45114 4.44593 7.8126 4.66887 8.03554L4.88826 7.81615ZM6.56607 9.49396L4.88826 7.81615L4.66887 8.03554L6.34668 9.71335L6.56607 9.49396Z" fill="#FFFFFF" mask="url(#path-2-outside-1_2393_6579)"/>
</svg>
