<svg width="28" height="28" viewBox="0 0 28 28" fill="none" xmlns="http://www.w3.org/2000/svg">
<path d="M20.0666 3.5H7.46663C5.92023 3.5 4.66663 4.7536 4.66663 6.3V21.7C4.66663 23.2464 5.92023 24.5 7.46663 24.5H11.6666H15.8666H20.0666C21.613 24.5 22.8666 23.2464 22.8666 21.7V6.3C22.8666 4.7536 21.613 3.5 20.0666 3.5Z" stroke="#151718" stroke-width="1.75"/>
<rect x="7.36133" y="8.18152" width="7.09259" height="1.65789" rx="0.828947" fill="#151718"/>
<rect x="7.36133" y="13.0808" width="12.6" height="1.65789" rx="0.828947" fill="#151718"/>
<rect x="10.5103" y="17.9818" width="9.40097" height="1.65789" rx="0.828947" fill="#151718"/>
<rect x="7.36133" y="17.9818" width="1.68" height="1.68" rx="0.84" fill="#151718"/>
<path fill-rule="evenodd" clip-rule="evenodd" d="M18.3715 9.88649C18.3935 9.87326 18.4209 9.87326 18.4429 9.88649L19.1208 10.2953C19.1731 10.3269 19.2376 10.28 19.2237 10.2206L19.0444 9.44948C19.0386 9.42453 19.0471 9.39841 19.0664 9.38164L19.6649 8.86305C19.711 8.82307 19.6864 8.74727 19.6255 8.74205L18.8366 8.67436C18.8111 8.67217 18.7889 8.65607 18.7789 8.63251L18.4708 7.9055C18.447 7.84935 18.3674 7.84935 18.3436 7.9055L18.0354 8.63251C18.0255 8.65607 18.0033 8.67217 17.9778 8.67436L17.1888 8.74205C17.128 8.74727 17.1034 8.82307 17.1495 8.86305L17.748 9.38164C17.7673 9.39841 17.7758 9.42453 17.77 9.44948L17.5906 10.2206C17.5768 10.28 17.6413 10.3269 17.6936 10.2953L18.3715 9.88649Z" fill="#151718" stroke="#151718" stroke-width="0.425555"/>
</svg>
