<svg width="24" height="24" viewBox="0 0 24 24" fill="none" xmlns="http://www.w3.org/2000/svg">
<path d="M11.625 23.625C18.0375 23.625 23.25 18.4125 23.25 12C23.25 5.5875 18.0375 0.375 11.625 0.375C5.2125 0.375 0 5.5875 0 12C0 18.4125 5.2125 23.625 11.625 23.625ZM2.625 16.6312L7.35 16.5938C7.875 18.4875 8.75625 20.325 9.95625 21.975C6.75 21.45 4.06875 19.4062 2.625 16.6312ZM8.55 8.8125H14.4375C14.8687 10.875 14.8687 12.9938 14.475 15.0563L8.55 15.0938C8.11875 13.0125 8.11875 10.875 8.55 8.8125ZM11.4937 21.5438C10.3125 20.025 9.45 18.3562 8.925 16.5938L14.0812 16.5563C13.5375 18.3188 12.675 20.0063 11.4937 21.5438ZM12.9938 22.0312C14.2313 20.3438 15.1125 18.4875 15.6375 16.5375L20.6813 16.5C19.2188 19.4437 16.3688 21.5625 12.9938 22.0312ZM21.75 12C21.75 13.05 21.5812 14.0625 21.3 15L15.9938 15.0375C16.3688 12.975 16.35 10.875 15.9562 8.8125H21.225C21.5625 9.80625 21.75 10.8937 21.75 12ZM20.5875 7.3125H15.6C15.0562 5.4375 14.1938 3.61875 12.9938 1.96875C16.3125 2.41875 19.1063 4.4625 20.5875 7.3125ZM14.0438 7.3125H8.94375C9.4875 5.5875 10.3312 3.95625 11.4937 2.45625C12.6562 3.95625 13.5 5.5875 14.0438 7.3125ZM9.95625 2.025C8.775 3.65625 7.9125 5.4375 7.3875 7.3125H2.6625C4.10625 4.55625 6.76875 2.55 9.95625 2.025ZM7.03125 8.8125C6.6375 10.8938 6.6375 13.0125 7.0125 15.0938L2.00625 15.1312C1.66875 14.1375 1.5 13.0875 1.5 12C1.5 10.8937 1.6875 9.80625 2.025 8.8125H7.03125Z" fill="#151718"/>
</svg>
