<svg width="322" height="307" viewBox="0 0 322 307" fill="none" xmlns="http://www.w3.org/2000/svg">
<path d="M124.993 305.65C117.018 305.648 110.282 304.557 105.267 302.194C67.0167 284.17 22.0573 172.746 12.6801 148.589C11.8092 146.343 10.9117 144.115 9.97975 141.896C8.25635 137.791 4.74919 128.027 4.75086 116.545C4.75224 106.172 7.61664 94.3985 17.2449 84.1272C39.6512 60.2232 176.473 -0.00012207 221.361 -0.00012207C224.072 -0.00012207 226.454 0.220825 228.448 0.681213C262.329 8.50992 321.086 136.389 321.075 191.899C321.075 193.777 321.007 195.571 320.869 197.276C317.142 243.291 185.32 305.657 124.993 305.65Z" fill="#DADEE2"/>
<path d="M137.423 108.212C137.423 84.9772 118.588 66.1423 95.3536 66.1423C72.1189 66.1423 53.2839 84.9772 53.2839 108.212C53.2839 131.447 72.1189 150.282 95.3536 150.282C118.588 150.282 137.423 131.447 137.423 108.212Z" fill="#FAEDD1"/>
<path d="M140.341 107.002C140.341 83.9195 121.629 65.2077 98.5464 65.2077C75.4636 65.2077 56.7518 83.9195 56.7518 107.002C56.7518 130.085 75.4636 148.797 98.5464 148.797C121.629 148.797 140.341 130.085 140.341 107.002Z" stroke="#FC733D" stroke-width="0.550275"/>
<path d="M58.1305 238.716C60.5763 239.603 66.3867 239.099 66.3911 239.099C66.451 239.093 64.8967 235.37 64.7715 235.145C63.3242 232.556 59.0044 228.405 55.7476 229.059C53.4014 229.53 52.2369 231.983 52.9134 234.178C53.6051 236.419 56.0476 237.96 58.1305 238.716Z" fill="#ADB4B9"/>
<path d="M61.2178 255.442C63.7086 255.644 68.8048 253.805 69.21 253.658C70.2161 256.512 71.48 259.359 72.9173 262.17C73.7372 263.779 74.6139 265.373 75.5119 266.96C74.994 266.297 74.5258 265.707 74.4519 265.631C72.3709 263.517 67.1086 260.653 64.1407 262.145C62.0018 263.219 61.527 265.892 62.7586 267.829C64.0167 269.808 66.7811 270.65 68.9889 270.828C71.2299 271.01 75.6064 269.53 76.7595 269.123C77.1105 269.728 77.4544 270.336 77.8082 270.94C79.5034 273.839 81.2071 276.723 82.7929 279.603C83.352 280.618 83.865 281.638 84.3822 282.657C83.9218 282.068 83.5289 281.576 83.4607 281.507C81.3812 279.393 76.118 276.528 73.1503 278.02C71.0115 279.094 70.5358 281.767 71.7677 283.705C73.0267 285.684 75.7897 286.525 77.9986 286.704C80.1371 286.877 84.189 285.547 85.5609 285.071C86.0596 286.129 86.5605 287.189 86.9953 288.238C87.2767 288.961 87.5978 289.637 87.8387 290.378C88.0937 291.109 88.3452 291.83 88.5953 292.545C89.0259 293.94 89.4785 295.377 89.8642 296.747C90.1399 297.699 90.3843 298.611 90.6344 299.529C90.0895 298.513 88.9811 296.544 88.8696 296.39C87.1346 293.985 82.3666 290.358 79.2064 291.382C76.9293 292.12 76.0547 294.689 76.9798 296.791C77.9233 298.937 80.5272 300.189 82.6835 300.699C85.0565 301.262 90.169 300.282 90.807 300.155C91.2141 301.676 91.5964 303.158 91.9346 304.563C92.0632 305.091 92.1832 305.604 92.3019 306.111H94.3701C94.2024 305.452 94.0269 304.775 93.8415 304.078C93.4344 302.533 92.9683 300.89 92.4731 299.207C92.8511 299.028 94.9925 297.998 96.8702 296.785C98.6848 298.515 103.17 300.386 103.75 300.623C103.252 302.117 102.752 303.564 102.259 304.922C102.113 305.327 101.969 305.72 101.825 306.111H103.934C103.996 305.931 104.056 305.754 104.118 305.57C104.631 304.056 105.149 302.428 105.664 300.753C106.296 300.843 111.464 301.553 113.808 300.864C115.933 300.238 118.467 298.851 119.296 296.657C120.108 294.51 119.097 291.989 116.784 291.374C113.575 290.519 109.006 294.395 107.402 296.89C107.306 297.037 106.457 298.749 105.939 299.837C106.146 299.151 106.355 298.487 106.56 297.778C106.975 296.379 107.345 294.97 107.751 293.457C107.922 292.719 108.094 291.973 108.268 291.22C108.455 290.477 108.56 289.669 108.711 288.886C109.024 287.064 109.252 285.203 109.44 283.323C110.666 283.683 115.038 284.897 117.244 284.599C119.439 284.303 122.154 283.316 123.306 281.273C124.433 279.273 123.816 276.629 121.623 275.669C118.579 274.338 113.477 277.478 111.512 279.701C111.389 279.839 110.159 281.592 109.502 282.567C109.606 281.437 109.716 280.309 109.785 279.161C109.982 275.848 110.079 272.489 110.19 269.137C110.224 268.111 110.27 267.087 110.312 266.064C110.747 266.197 115.912 267.753 118.383 267.419C120.579 267.124 123.293 266.136 124.444 264.093C125.573 262.093 124.955 259.448 122.763 258.49C119.719 257.159 114.616 260.298 112.652 262.521C112.504 262.688 110.737 265.213 110.32 265.878C110.413 263.622 110.526 261.378 110.729 259.168C111.003 256.119 111.442 253.142 112.079 250.291C112.281 250.354 117.666 252.001 120.196 251.66C122.392 251.363 125.107 250.377 126.258 248.333C127.386 246.333 126.768 243.689 124.576 242.73C121.532 241.399 116.43 244.538 114.465 246.761C114.311 246.935 112.411 249.653 112.102 250.17C112.141 250 112.162 249.822 112.202 249.653C112.921 246.617 114 243.766 115.14 241.147C115.799 239.623 116.516 238.203 117.242 236.838C118.214 237.247 122.673 239.071 124.984 239.017C127.2 238.963 130.007 238.279 131.375 236.376C132.716 234.512 132.393 231.816 130.319 230.622C127.439 228.964 122.023 231.525 119.826 233.518C119.707 233.626 118.615 234.863 117.832 235.774C118.17 235.162 118.506 234.526 118.842 233.947C120.094 231.769 121.377 229.853 122.525 228.165C123.186 227.21 123.802 226.36 124.388 225.571C125.551 225.476 130.233 225.033 132.222 223.94C134.162 222.871 136.339 220.972 136.677 218.651C137.007 216.378 135.478 214.134 133.087 214.031C129.769 213.887 126.141 218.654 125.109 221.436C125.021 221.677 124.059 225.597 124.12 225.592L124.19 225.586C123.611 226.335 123 227.143 122.349 228.041C121.161 229.707 119.835 231.601 118.53 233.759C117.219 235.913 115.856 238.289 114.647 240.922C113.431 243.559 112.288 246.397 111.486 249.471L111.463 249.579C111.418 248.606 111.202 245.892 111.161 245.686C110.592 242.775 107.784 237.483 104.484 237.089C102.109 236.805 100.237 238.772 100.196 241.068C100.155 243.413 101.995 245.639 103.738 247.007C105.704 248.549 110.97 249.827 111.388 249.928C110.652 252.863 110.136 255.935 109.784 259.073C109.581 260.867 109.432 262.68 109.306 264.5C109.24 263.66 109.175 262.909 109.154 262.806C108.586 259.894 105.777 254.604 102.478 254.209C100.101 253.925 98.2301 255.892 98.1896 258.189C98.1477 260.533 99.9885 262.759 101.731 264.127C103.5 265.514 107.967 266.695 109.153 266.992C109.112 267.689 109.063 268.387 109.025 269.086C108.84 272.438 108.671 275.784 108.403 279.061C108.31 280.216 108.175 281.35 108.045 282.484C107.986 281.739 107.929 281.112 107.911 281.018C107.343 278.106 104.533 272.815 101.235 272.42C98.8581 272.138 96.9867 274.103 96.9463 276.4C96.9036 278.744 98.7452 280.971 100.489 282.338C102.176 283.662 106.29 284.788 107.698 285.148C107.529 286.306 107.362 287.466 107.146 288.582C106.981 289.34 106.875 290.081 106.668 290.832C106.478 291.58 106.29 292.323 106.104 293.057C105.694 294.457 105.279 295.905 104.845 297.261C104.549 298.207 104.25 299.103 103.952 300.005C104.059 298.857 104.22 296.604 104.212 296.415C104.132 294.446 103.229 291.294 101.695 289.135C101.685 288.844 101.65 288.556 101.586 288.271C101.077 286.032 98.8439 284.487 96.5747 285.25C93.4266 286.308 91.7541 292.061 91.7918 295.026C91.7939 295.203 92.0298 297.098 92.1989 298.291C91.9921 297.605 91.801 296.936 91.58 296.232C91.153 294.836 90.6863 293.457 90.1903 291.97C89.9253 291.26 89.6575 290.544 89.3868 289.82C89.1339 289.097 88.7744 288.365 88.4689 287.629C87.7243 285.938 86.8881 284.258 86.0078 282.587C87.2291 282.21 91.5452 280.811 93.2205 279.346C94.8887 277.887 96.6081 275.566 96.4418 273.228C96.2784 270.937 94.3061 269.072 91.9481 269.482C88.6749 270.051 86.1506 275.485 85.7378 278.422C85.7122 278.605 85.6533 280.746 85.6433 281.922C85.1062 280.923 84.5755 279.92 83.9993 278.925C82.3368 276.052 80.5641 273.197 78.8078 270.34C78.27 269.466 77.7443 268.588 77.2142 267.711C77.6505 267.581 82.817 266.029 84.6941 264.388C86.3616 262.931 88.0817 260.609 87.9147 258.27C87.752 255.979 85.779 254.114 83.4209 254.525C80.1478 255.093 77.6242 260.526 77.2107 263.464C77.1801 263.686 77.0999 266.766 77.1176 267.551C75.9517 265.62 74.8079 263.683 73.7571 261.728C72.3049 259.034 71.0279 256.31 69.9866 253.58C70.1903 253.52 75.5894 251.924 77.5119 250.244C79.1801 248.786 80.8995 246.464 80.7325 244.125C80.5698 241.835 78.5968 239.97 76.2388 240.379C72.9656 240.948 70.4417 246.382 70.0294 249.319C69.9969 249.55 69.9119 252.865 69.9397 253.466C69.8781 253.304 69.7962 253.142 69.7366 252.98C68.662 250.05 67.9887 247.078 67.4947 244.263C67.2044 242.629 67.0187 241.051 66.8719 239.511C67.9082 239.316 72.6338 238.377 74.5308 237.057C76.3496 235.79 78.3133 233.672 78.405 231.329C78.4938 229.035 76.7375 226.964 74.3496 227.113C71.0335 227.318 67.9279 232.442 67.1955 235.316C67.1556 235.472 66.9257 237.106 66.7762 238.298C66.7206 237.602 66.6504 236.885 66.6105 236.217C66.4547 233.71 66.4661 231.405 66.493 229.363C66.5178 228.202 66.5633 227.152 66.6163 226.171C67.5332 225.45 71.1941 222.498 72.2494 220.488C73.2796 218.527 74.0469 215.742 73.048 213.621C72.0704 211.543 69.557 210.515 67.5057 211.747C64.658 213.458 64.2629 219.436 64.9367 222.325C64.9952 222.574 66.3554 226.374 66.4037 226.337L66.4589 226.293C66.3887 227.236 66.3254 228.249 66.2783 229.356C66.2064 231.401 66.1442 233.712 66.2466 236.233C66.3418 238.752 66.5163 241.486 66.9604 244.349C67.4017 247.219 68.0117 250.217 69.0402 253.223L69.0804 253.325C68.5062 252.539 66.8275 250.395 66.6801 250.245C64.6 248.131 59.3378 245.267 56.3693 246.758C54.231 247.832 53.755 250.505 54.9875 252.443C56.2467 254.421 59.0095 255.263 61.2178 255.442Z" fill="#ADB4B9"/>
<path d="M117.069 236.23C117.122 236.258 117.88 232.294 117.899 232.039C118.12 229.081 116.807 223.236 113.729 221.984C111.512 221.082 109.188 222.486 108.543 224.69C107.883 226.939 109.071 229.573 110.391 231.352C111.941 233.442 117.065 236.227 117.069 236.23Z" fill="#ADB4B9"/>
<path d="M9.02033 267.978C10.4041 268.479 13.6914 268.195 13.6942 268.195C13.7283 268.192 12.8486 266.085 12.7777 265.957C11.9585 264.493 9.51432 262.143 7.67178 262.514C6.34465 262.781 5.68552 264.168 6.06795 265.41C6.45927 266.678 7.84194 267.55 9.02033 267.978Z" fill="#ADB4B9"/>
<path d="M10.7669 277.441C12.1762 277.556 15.06 276.516 15.2889 276.432C15.8584 278.047 16.5733 279.659 17.3868 281.249C17.8508 282.159 18.3464 283.061 18.8549 283.958C18.5619 283.583 18.2968 283.249 18.2549 283.207C17.0779 282.01 14.1003 280.39 12.4207 281.234C11.2104 281.842 10.942 283.355 11.6389 284.451C12.3505 285.57 13.9149 286.047 15.164 286.148C16.4321 286.251 18.9084 285.413 19.5609 285.183C19.7594 285.525 19.9539 285.87 20.154 286.211C21.1135 287.85 22.0776 289.483 22.9746 291.113C23.2909 291.686 23.5809 292.264 23.874 292.84C23.6131 292.508 23.3908 292.229 23.3522 292.189C22.1756 290.994 19.198 289.372 17.5183 290.216C16.3083 290.824 16.0394 292.336 16.7362 293.433C17.449 294.552 19.012 295.029 20.2617 295.13C21.472 295.228 23.7644 294.476 24.5409 294.206C24.8229 294.805 25.1063 295.405 25.3527 295.998C25.5114 296.407 25.6933 296.79 25.8295 297.21C25.9741 297.622 26.1162 298.031 26.2577 298.435C26.5011 299.224 26.7573 300.037 26.9754 300.813C27.1314 301.351 27.2702 301.867 27.4111 302.387C27.1031 301.811 26.4758 300.698 26.4128 300.61C25.4309 299.25 22.7331 297.197 20.945 297.777C19.657 298.194 19.1621 299.649 19.685 300.837C20.2193 302.052 21.6926 302.76 22.9124 303.049C24.2553 303.367 27.1483 302.812 27.5091 302.741C27.7397 303.602 27.9559 304.44 28.1469 305.235C28.2196 305.535 28.2878 305.824 28.3548 306.111H29.5253C29.4304 305.738 29.3314 305.355 29.2262 304.961C28.9958 304.086 28.7319 303.157 28.4519 302.205C28.6656 302.103 29.877 301.521 30.9399 300.834C31.9665 301.813 34.5042 302.871 34.8325 303.006C34.5506 303.851 34.268 304.67 33.9888 305.438C33.9064 305.667 33.8246 305.89 33.7432 306.111H34.9363C34.9711 306.009 35.0057 305.909 35.0404 305.805C35.331 304.949 35.6235 304.027 35.9154 303.079C36.2729 303.131 39.1975 303.531 40.5236 303.142C41.7258 302.788 43.1598 302.003 43.6291 300.762C44.0882 299.547 43.5162 298.121 42.2073 297.773C40.3912 297.289 37.8063 299.482 36.8982 300.893C36.8444 300.977 36.3642 301.945 36.0712 302.561C36.1882 302.173 36.3062 301.797 36.4222 301.396C36.6567 300.604 36.8668 299.807 37.0966 298.951C37.1926 298.533 37.29 298.111 37.3889 297.686C37.4949 297.265 37.554 296.807 37.6395 296.365C37.8165 295.334 37.9453 294.281 38.0516 293.217C38.7455 293.421 41.2193 294.108 42.4673 293.939C43.7099 293.772 45.2457 293.213 45.8971 292.057C46.5354 290.926 46.186 289.43 44.9454 288.886C43.2231 288.133 40.3359 289.909 39.2242 291.168C39.1548 291.245 38.459 292.238 38.0871 292.79C38.146 292.15 38.2081 291.511 38.2467 290.862C38.3585 288.987 38.4132 287.087 38.4765 285.19C38.4954 284.609 38.5214 284.031 38.5453 283.451C38.7912 283.527 41.7139 284.407 43.112 284.218C44.3543 284.051 45.8904 283.492 46.5421 282.337C47.1798 281.205 46.8309 279.709 45.5901 279.166C43.868 278.413 40.9809 280.189 39.8694 281.447C39.7856 281.541 38.7857 282.971 38.5495 283.346C38.6022 282.07 38.6666 280.8 38.7812 279.549C38.9364 277.825 39.1847 276.14 39.5455 274.527C39.6596 274.562 42.7061 275.494 44.1378 275.302C45.38 275.134 46.9161 274.575 47.5678 273.419C48.2058 272.288 47.8567 270.792 46.6159 270.248C44.8938 269.496 42.007 271.272 40.8949 272.529C40.808 272.629 39.7332 274.166 39.558 274.459C39.5803 274.363 39.5919 274.261 39.6147 274.166C40.0218 272.448 40.6315 270.835 41.2767 269.353C41.65 268.491 42.0552 267.688 42.4666 266.915C43.0163 267.147 45.5396 268.179 46.8474 268.148C48.1006 268.117 49.689 267.731 50.463 266.653C51.2217 265.599 51.0392 264.074 49.8654 263.398C48.2363 262.46 45.1716 263.909 43.9286 265.037C43.8611 265.098 43.243 265.797 42.8001 266.313C42.991 265.967 43.1817 265.607 43.3716 265.279C44.0803 264.047 44.8055 262.963 45.4558 262.008C45.8296 261.468 46.1785 260.987 46.5099 260.54C47.1674 260.486 49.8166 260.236 50.9422 259.618C52.0402 259.012 53.2721 257.938 53.4628 256.625C53.6499 255.339 52.7848 254.07 51.4321 254.011C49.554 253.929 47.5015 256.627 46.9181 258.2C46.8679 258.337 46.3234 260.555 46.3578 260.552L46.3978 260.549C46.0702 260.972 45.7244 261.429 45.3561 261.937C44.684 262.88 43.9333 263.952 43.195 265.173C42.4538 266.392 41.6825 267.736 40.9979 269.226C40.3101 270.719 39.663 272.323 39.2098 274.064L39.1964 274.124C39.1712 273.574 39.0488 272.038 39.0255 271.922C38.704 270.275 37.1146 267.28 35.248 267.057C33.9036 266.897 32.8449 268.01 32.8216 269.309C32.798 270.635 33.8393 271.894 34.8256 272.669C35.9379 273.541 38.9172 274.265 39.1545 274.322C38.7379 275.983 38.4457 277.72 38.2467 279.496C38.1318 280.511 38.0474 281.536 37.9764 282.566C37.9389 282.091 37.902 281.667 37.8903 281.609C37.5684 279.961 35.9793 276.967 34.1129 276.744C32.7683 276.583 31.7095 277.697 31.6862 278.996C31.6626 280.322 32.7039 281.582 33.6902 282.356C34.691 283.141 37.2187 283.809 37.8895 283.976C37.8665 284.371 37.839 284.766 37.8171 285.161C37.7127 287.058 37.6167 288.952 37.4655 290.806C37.413 291.459 37.3367 292.101 37.2628 292.743C37.229 292.321 37.1971 291.966 37.1868 291.913C36.8649 290.265 35.2758 287.271 33.4096 287.048C32.0647 286.888 31.006 288.001 30.9827 289.301C30.9588 290.626 32.0006 291.887 32.987 292.66C33.9417 293.409 36.2693 294.047 37.0661 294.25C36.9706 294.906 36.876 295.561 36.7539 296.192C36.6606 296.621 36.601 297.04 36.4836 297.466C36.3762 297.89 36.2699 298.309 36.1644 298.725C35.9321 299.517 35.6976 300.336 35.4514 301.104C35.2847 301.639 35.1154 302.146 34.9469 302.657C35.0068 302.007 35.0984 300.732 35.094 300.625C35.0484 299.511 34.5375 297.727 33.6694 296.506C33.6639 296.341 33.6442 296.178 33.6072 296.017C33.3197 294.75 32.0564 293.876 30.7729 294.308C28.9911 294.906 28.045 298.162 28.0667 299.839C28.0675 299.939 28.2009 301.011 28.2964 301.686C28.1796 301.298 28.0714 300.919 27.9465 300.521C27.705 299.732 27.4405 298.951 27.16 298.109C27.0101 297.708 26.8586 297.303 26.7051 296.893C26.5625 296.484 26.359 296.07 26.1864 295.654C25.7651 294.697 25.2916 293.747 24.7935 292.801C25.4848 292.588 27.9268 291.796 28.8748 290.967C29.8187 290.142 30.7914 288.828 30.6973 287.505C30.6049 286.209 29.4887 285.154 28.1546 285.386C26.3027 285.707 24.8742 288.781 24.6408 290.444C24.6267 290.548 24.5928 291.759 24.5873 292.424C24.2834 291.858 23.9831 291.292 23.657 290.729C22.7164 289.104 21.7135 287.487 20.7199 285.872C20.4154 285.376 20.1177 284.88 19.8179 284.383C20.0649 284.31 22.9881 283.432 24.0503 282.503C24.9939 281.679 25.9669 280.366 25.8728 279.041C25.7804 277.746 24.6638 276.691 23.3298 276.923C21.4779 277.244 20.0497 280.319 19.8163 281.98C19.7988 282.106 19.753 283.849 19.7633 284.293C19.1036 283.2 18.4564 282.105 17.8622 280.999C17.0402 279.474 16.318 277.933 15.7286 276.388C15.8437 276.354 18.8988 275.451 19.9867 274.501C20.9303 273.675 21.9033 272.362 21.8089 271.039C21.7171 269.743 20.6003 268.687 19.2659 268.919C17.4142 269.241 15.9861 272.315 15.7529 273.978C15.7341 274.108 15.6864 275.983 15.7022 276.324C15.6672 276.231 15.6206 276.14 15.587 276.049C14.9792 274.391 14.5979 272.709 14.3184 271.117C14.1544 270.192 14.0492 269.299 13.9662 268.428C14.5527 268.318 17.2267 267.787 18.2996 267.039C19.3284 266.322 20.4399 265.124 20.4918 263.798C20.542 262.499 19.5484 261.328 18.1969 261.412C16.3211 261.529 14.5637 264.428 14.1491 266.054C14.1267 266.143 13.9968 267.067 13.9121 267.741C13.8808 267.347 13.8408 266.942 13.8183 266.564C13.7304 265.146 13.7367 263.841 13.752 262.686C13.7659 262.028 13.7914 261.435 13.8217 260.88C14.3404 260.472 16.4118 258.801 17.0091 257.664C17.5919 256.555 18.026 254.979 17.4606 253.779C16.9075 252.603 15.4854 252.021 14.3251 252.719C12.7135 253.687 12.4901 257.069 12.8711 258.703C12.9044 258.845 13.674 260.994 13.7012 260.974L13.7326 260.949C13.6928 261.483 13.6568 262.055 13.6302 262.682C13.5896 263.839 13.5544 265.146 13.6124 266.573C13.6665 267.998 13.765 269.545 14.0162 271.166C14.266 272.789 14.6112 274.485 15.1932 276.187L15.216 276.244C14.8913 275.799 13.9412 274.586 13.8577 274.501C12.681 273.304 9.70338 271.684 8.02375 272.528C6.81375 273.136 6.54454 274.648 7.2417 275.745C7.95441 276.865 9.51745 277.34 10.7669 277.441Z" fill="#ADB4B9"/>
<path d="M42.3685 266.571C42.3984 266.587 42.8273 264.345 42.8383 264.2C42.963 262.526 42.22 259.219 40.4785 258.511C39.2244 258.001 37.9094 258.795 37.5445 260.042C37.1706 261.314 37.8428 262.805 38.5896 263.812C39.4666 264.993 42.366 266.57 42.3685 266.571Z" fill="#ADB4B9"/>
<path d="M272.661 267.978C274.044 268.48 277.332 268.195 277.334 268.195C277.369 268.192 276.49 266.085 276.418 265.957C275.599 264.493 273.155 262.144 271.313 262.515C269.985 262.781 269.327 264.168 269.709 265.41C270.1 266.678 271.482 267.55 272.661 267.978Z" fill="#66B5FF"/>
<path d="M274.407 277.441C275.817 277.556 278.701 276.516 278.929 276.433C279.499 278.048 280.214 279.659 281.027 281.249C281.491 282.159 281.987 283.061 282.495 283.959C282.203 283.583 281.938 283.25 281.896 283.208C280.718 282.011 277.741 280.391 276.061 281.234C274.851 281.842 274.582 283.355 275.28 284.451C275.992 285.57 277.555 286.047 278.805 286.148C280.073 286.251 282.549 285.413 283.201 285.183C283.4 285.525 283.595 285.87 283.795 286.211C284.755 287.851 285.718 289.483 286.615 291.113C286.931 291.686 287.221 292.264 287.514 292.84C287.254 292.508 287.032 292.229 286.993 292.19C285.816 290.994 282.838 289.372 281.159 290.217C279.949 290.824 279.68 292.337 280.377 293.433C281.089 294.553 282.653 295.029 283.902 295.13C285.112 295.228 287.405 294.476 288.182 294.206C288.463 294.806 288.747 295.405 288.993 295.998C289.152 296.408 289.334 296.79 289.47 297.21C289.614 297.623 289.757 298.031 289.898 298.435C290.142 299.225 290.398 300.037 290.617 300.813C290.772 301.352 290.911 301.868 291.052 302.387C290.743 301.812 290.116 300.698 290.054 300.611C289.072 299.25 286.374 297.198 284.585 297.777C283.297 298.195 282.803 299.649 283.326 300.837C283.86 302.052 285.334 302.76 286.553 303.049C287.896 303.367 290.789 302.813 291.15 302.742C291.38 303.602 291.596 304.44 291.788 305.235C291.861 305.535 291.928 305.824 291.996 306.111H293.166C293.071 305.738 292.972 305.355 292.867 304.961C292.636 304.086 292.372 303.157 292.093 302.205C292.306 302.104 293.518 301.521 294.58 300.835C295.607 301.813 298.145 302.871 298.473 303.007C298.192 303.851 297.908 304.67 297.63 305.439C297.547 305.667 297.465 305.89 297.384 306.111H298.578C298.612 306.009 298.646 305.91 298.681 305.805C298.971 304.949 299.264 304.027 299.557 303.079C299.914 303.131 302.838 303.532 304.164 303.142C305.366 302.788 306.801 302.003 307.269 300.762C307.729 299.547 307.157 298.121 305.848 297.773C304.032 297.289 301.447 299.482 300.538 300.894C300.485 300.977 300.004 301.945 299.711 302.561C299.829 302.173 299.947 301.797 300.062 301.396C300.298 300.604 300.507 299.807 300.737 298.951C300.833 298.533 300.931 298.111 301.029 297.686C301.135 297.265 301.194 296.808 301.28 296.365C301.457 295.334 301.586 294.281 301.692 293.218C302.386 293.421 304.86 294.108 306.108 293.939C307.35 293.772 308.886 293.213 309.537 292.058C310.176 290.926 309.827 289.43 308.586 288.887C306.864 288.134 303.976 289.91 302.865 291.168C302.796 291.245 302.1 292.238 301.728 292.79C301.787 292.151 301.849 291.512 301.888 290.862C301.999 288.987 302.054 287.087 302.117 285.191C302.136 284.609 302.163 284.031 302.186 283.451C302.432 283.527 305.355 284.407 306.752 284.219C307.996 284.051 309.532 283.493 310.183 282.337C310.82 281.205 310.472 279.709 309.231 279.167C307.509 278.413 304.621 280.19 303.51 281.447C303.427 281.542 302.427 282.971 302.19 283.346C302.243 282.07 302.308 280.8 302.422 279.55C302.578 277.825 302.825 276.141 303.186 274.527C303.3 274.563 306.347 275.494 307.778 275.302C309.021 275.134 310.557 274.575 311.208 273.419C311.846 272.289 311.498 270.792 310.256 270.249C308.534 269.496 305.647 271.273 304.536 272.529C304.448 272.629 303.374 274.166 303.199 274.459C303.22 274.363 303.232 274.262 303.255 274.166C303.662 272.448 304.272 270.835 304.917 269.353C305.291 268.491 305.696 267.688 306.107 266.915C306.657 267.147 309.18 268.179 310.488 268.148C311.741 268.117 313.329 267.732 314.104 266.654C314.862 265.599 314.68 264.074 313.506 263.398C311.877 262.46 308.813 263.909 307.569 265.037C307.502 265.098 306.884 265.797 306.441 266.313C306.632 265.967 306.822 265.607 307.012 265.28C307.721 264.048 308.446 262.964 309.096 262.008C309.471 261.468 309.819 260.987 310.15 260.54C310.808 260.487 313.457 260.237 314.583 259.618C315.681 259.012 316.913 257.938 317.104 256.625C317.291 255.339 316.425 254.07 315.073 254.011C313.195 253.93 311.142 256.627 310.559 258.2C310.509 258.337 309.964 260.555 309.998 260.552L310.038 260.549C309.711 260.973 309.365 261.43 308.997 261.938C308.325 262.88 307.574 263.952 306.836 265.173C306.094 266.392 305.324 267.737 304.639 269.226C303.951 270.719 303.304 272.323 302.85 274.064L302.838 274.124C302.812 273.574 302.69 272.038 302.666 271.922C302.344 270.275 300.755 267.28 298.889 267.057C297.545 266.897 296.485 268.01 296.462 269.309C296.439 270.635 297.48 271.895 298.466 272.669C299.579 273.541 302.558 274.265 302.795 274.322C302.379 275.983 302.087 277.721 301.887 279.496C301.773 280.512 301.689 281.537 301.617 282.566C301.579 282.091 301.542 281.667 301.531 281.609C301.209 279.961 299.62 276.968 297.753 276.745C296.408 276.583 295.351 277.697 295.326 278.996C295.303 280.323 296.345 281.582 297.331 282.356C298.332 283.141 300.86 283.809 301.53 283.976C301.508 284.372 301.48 284.767 301.458 285.161C301.353 287.058 301.257 288.952 301.106 290.806C301.054 291.459 300.978 292.101 300.903 292.743C300.87 292.322 300.838 291.966 300.828 291.913C300.506 290.265 298.916 287.272 297.05 287.049C295.706 286.888 294.646 288.001 294.623 289.301C294.6 290.627 295.641 291.887 296.628 292.66C297.582 293.409 299.91 294.047 300.707 294.25C300.611 294.906 300.516 295.562 300.394 296.192C300.301 296.622 300.241 297.041 300.124 297.466C300.017 297.89 299.91 298.31 299.805 298.725C299.573 299.518 299.338 300.336 299.092 301.104C298.926 301.639 298.757 302.146 298.588 302.657C298.647 302.007 298.739 300.732 298.735 300.625C298.689 299.511 298.178 297.727 297.31 296.506C297.305 296.341 297.284 296.178 297.248 296.017C296.961 294.75 295.697 293.876 294.413 294.308C292.632 294.906 291.685 298.162 291.707 299.839C291.709 299.939 291.842 301.011 291.937 301.686C291.82 301.298 291.712 300.919 291.587 300.521C291.346 299.732 291.081 298.951 290.801 298.109C290.651 297.709 290.499 297.304 290.346 296.893C290.203 296.484 289.999 296.07 289.827 295.654C289.405 294.697 288.932 293.747 288.434 292.801C289.125 292.588 291.567 291.797 292.515 290.968C293.46 290.142 294.433 288.828 294.338 287.505C294.246 286.209 293.13 285.154 291.795 285.386C289.943 285.707 288.515 288.781 288.281 290.444C288.267 290.548 288.234 291.759 288.228 292.425C287.925 291.859 287.624 291.292 287.298 290.73C286.357 289.104 285.354 287.488 284.36 285.872C284.056 285.376 283.758 284.88 283.459 284.384C283.705 284.31 286.629 283.432 287.69 282.504C288.635 281.679 289.608 280.366 289.513 279.041C289.421 277.746 288.305 276.691 286.971 276.923C285.118 277.245 283.691 280.319 283.457 281.981C283.439 282.106 283.394 283.849 283.404 284.293C282.744 283.201 282.097 282.105 281.502 280.999C280.681 279.474 279.959 277.933 279.369 276.388C279.485 276.354 282.539 275.452 283.628 274.501C284.571 273.675 285.544 272.362 285.449 271.039C285.357 269.743 284.241 268.687 282.907 268.919C281.055 269.241 279.627 272.315 279.393 273.978C279.375 274.108 279.327 275.984 279.342 276.324C279.308 276.232 279.261 276.141 279.228 276.049C278.62 274.391 278.239 272.709 277.959 271.117C277.795 270.192 277.69 269.3 277.607 268.428C278.193 268.318 280.867 267.787 281.94 267.039C282.969 266.322 284.08 265.124 284.132 263.798C284.183 262.5 283.189 261.329 281.837 261.412C279.961 261.529 278.205 264.428 277.79 266.054C277.768 266.143 277.638 267.067 277.552 267.742C277.521 267.348 277.481 266.942 277.459 266.564C277.371 265.146 277.378 263.841 277.393 262.686C277.407 262.029 277.432 261.435 277.462 260.88C277.981 260.472 280.052 258.801 280.649 257.665C281.233 256.555 281.666 254.979 281.101 253.779C280.549 252.603 279.126 252.021 277.966 252.719C276.354 253.687 276.131 257.069 276.512 258.703C276.545 258.845 277.314 260.994 277.342 260.974L277.373 260.949C277.333 261.483 277.297 262.056 277.27 262.682C277.231 263.839 277.195 265.147 277.253 266.573C277.307 267.999 277.406 269.545 277.657 271.166C277.906 272.789 278.252 274.485 278.834 276.187L278.857 276.244C278.532 275.8 277.582 274.586 277.498 274.502C276.321 273.304 273.344 271.685 271.665 272.528C270.455 273.136 270.186 274.649 270.883 275.745C271.595 276.865 273.158 277.341 274.407 277.441Z" fill="#ADB4B9"/>
<path d="M306.009 266.571C306.04 266.587 306.468 264.345 306.479 264.2C306.604 262.526 305.861 259.219 304.119 258.511C302.865 258.001 301.55 258.795 301.185 260.042C300.811 261.314 301.483 262.805 302.23 263.812C303.107 264.993 306.007 266.57 306.009 266.571Z" fill="#ADB4B9"/>
<path d="M219.058 305.633V227.49L284.987 230.292V305.539" fill="#7B93A8"/>
<path d="M219.413 305.633V227.861L284.631 230.632V305.539C284.631 305.736 284.791 305.895 284.987 305.895C285.183 305.895 285.342 305.736 285.342 305.539V230.292C285.342 230.101 285.192 229.945 285.002 229.937L219.072 227.134C218.977 227.131 218.881 227.166 218.812 227.233C218.742 227.3 218.702 227.393 218.702 227.49V305.633C218.702 305.83 218.861 305.989 219.058 305.989C219.254 305.989 219.413 305.83 219.413 305.633Z" fill="#17252F"/>
<path d="M243.238 253.914L250.856 257.651V306.112C250.856 306.308 251.015 306.467 251.211 306.467C251.407 306.467 251.566 306.308 251.566 306.112V257.43C251.566 257.294 251.489 257.171 251.367 257.112L243.551 253.276C243.374 253.19 243.161 253.263 243.075 253.439C242.989 253.615 243.062 253.828 243.238 253.914Z" fill="#17252F"/>
<path d="M201.211 189.584L199.511 198.097L219.814 208.249L220.449 193.233L201.211 189.584Z" fill="white"/>
<path d="M201.211 189.584L200.862 189.514L199.163 198.028C199.132 198.184 199.209 198.343 199.353 198.415L219.656 208.567C219.763 208.621 219.892 208.616 219.995 208.555C220.098 208.494 220.165 208.384 220.169 208.264L220.803 193.248C220.811 193.072 220.687 192.916 220.515 192.884L201.277 189.235C201.085 189.199 200.901 189.323 200.862 189.514L201.211 189.584L201.145 189.933L220.081 193.525L219.482 207.686L199.912 197.9L201.559 189.653L201.211 189.584Z" fill="#17252F"/>
<path d="M237.789 130.881C237.789 130.881 214.78 138.551 213.306 139.141C211.831 139.731 210.208 141.501 210.356 142.976C210.503 144.451 201.211 188.403 201.211 189.583C201.211 190.764 217.73 195.483 217.73 195.483C217.73 195.483 218.32 229.554 218.468 230.439C218.615 231.324 219.603 234.685 236.904 235.011C251.216 235.281 271.753 235.872 276.432 235.601C284.954 235.108 285.282 232.208 285.724 231.324C286.167 230.439 285.724 190.911 285.724 190.911L315.612 205.091C315.612 205.091 315.907 204.795 315.76 201.108C315.612 197.421 305.046 169.819 300.326 157.578C295.606 145.336 293.247 141.943 287.494 137.666C281.741 133.389 267.878 127.636 267.878 127.636C267.878 127.636 256.52 129.997 248.408 130.144C240.297 130.291 237.789 130.881 237.789 130.881Z" fill="white"/>
<path d="M237.789 130.881L237.677 130.545C237.677 130.545 231.924 132.462 225.988 134.454C223.019 135.449 220.004 136.464 217.639 137.266C216.457 137.666 215.436 138.015 214.665 138.281C213.892 138.549 213.376 138.731 213.173 138.812C212.4 139.123 211.627 139.705 211.026 140.407C210.43 141.112 209.996 141.939 209.991 142.785C209.991 142.861 209.995 142.936 210.002 143.011L210.03 143.008L210.002 143.01V143.011L210.03 143.008L210.002 143.01V143.019C210.003 143.099 209.97 143.4 209.904 143.825C209.405 147.055 207.143 158.217 205.008 168.689C203.94 173.927 202.904 178.995 202.135 182.824C201.75 184.739 201.431 186.343 201.21 187.505C201.098 188.086 201.012 188.556 200.951 188.9C200.921 189.073 200.899 189.213 200.882 189.324C200.867 189.437 200.857 189.503 200.856 189.584C200.857 189.727 200.914 189.832 200.97 189.912C201.083 190.065 201.227 190.17 201.412 190.291C202.097 190.726 203.417 191.262 205.057 191.859C209.965 193.635 217.629 195.824 217.632 195.825L217.73 195.483L217.375 195.49C217.375 195.49 217.522 204.008 217.689 212.636C217.772 216.95 217.859 221.293 217.935 224.612C217.973 226.272 218.008 227.676 218.039 228.694C218.054 229.203 218.068 229.615 218.08 229.915C218.086 230.066 218.092 230.188 218.098 230.282C218.104 230.379 218.108 230.436 218.118 230.498C218.157 230.751 218.276 231.217 218.709 231.713C219.358 232.463 220.666 233.303 223.419 233.999C226.176 234.694 230.392 235.244 236.898 235.367C248.64 235.588 264.576 236.026 272.511 236.026C274.247 236.026 275.598 236.005 276.453 235.956C280.751 235.706 283.032 234.853 284.32 233.895C284.963 233.416 285.348 232.91 285.594 232.47C285.838 232.033 285.953 231.654 286.042 231.483C286.085 231.389 286.087 231.345 286.101 231.277C286.138 231.043 286.163 230.629 286.186 230.015C286.252 228.183 286.276 224.665 286.276 220.453C286.276 208.476 286.08 190.908 286.08 190.907L285.724 190.912L285.572 191.232L315.46 205.412C315.595 205.476 315.757 205.449 315.863 205.342C315.964 205.228 315.999 205.13 316.057 204.807C316.109 204.484 316.156 203.93 316.156 202.936C316.156 202.44 316.144 201.834 316.115 201.094C316.091 200.566 315.905 199.731 315.591 198.587C314.489 194.6 311.792 187.005 308.849 179.053C305.907 171.103 302.722 162.807 300.657 157.45C298.294 151.322 296.519 147.393 294.595 144.442C292.672 141.489 290.599 139.531 287.706 137.382C284.785 135.211 279.876 132.705 275.68 130.726C271.487 128.75 268.017 127.311 268.014 127.309C267.948 127.281 267.875 127.275 267.805 127.289C267.803 127.289 267.1 127.436 265.911 127.659C262.346 128.328 254.443 129.68 248.402 129.789C240.275 129.937 237.746 130.528 237.708 130.536L237.677 130.545L237.789 130.881L237.871 131.227L237.894 131.222C238.165 131.164 240.825 130.638 248.414 130.5C256.582 130.349 267.939 127.986 267.95 127.985L267.878 127.637L267.741 127.965C267.742 127.966 267.957 128.054 268.346 128.219C269.709 128.798 273.198 130.304 276.972 132.13C280.743 133.956 284.805 136.108 287.282 137.951C290.142 140.079 292.124 141.956 294 144.829C295.874 147.704 297.638 151.592 299.994 157.705C302.354 163.826 306.175 173.786 309.424 182.673C311.048 187.117 312.529 191.293 313.612 194.584C314.154 196.229 314.596 197.653 314.906 198.776C315.215 199.894 315.392 200.729 315.405 201.122C315.434 201.855 315.446 202.451 315.446 202.936C315.446 203.907 315.398 204.431 315.355 204.694C315.335 204.825 315.315 204.89 315.308 204.909L315.306 204.914L315.541 205.021L315.361 204.84L315.306 204.914L315.541 205.021L315.361 204.84L315.612 205.091L315.765 204.77L285.876 190.59C285.766 190.538 285.635 190.546 285.532 190.612C285.429 190.678 285.368 190.793 285.369 190.915C285.369 190.918 285.381 192.013 285.4 193.846C285.455 199.348 285.566 211.475 285.566 220.453C285.566 223.446 285.553 226.089 285.523 228.017C285.508 228.982 285.488 229.768 285.462 230.327C285.45 230.606 285.436 230.83 285.421 230.985C285.414 231.063 285.407 231.124 285.4 231.161L285.393 231.198L285.548 231.237L285.407 231.166L285.393 231.198L285.548 231.237L285.407 231.166C285.274 231.437 285.182 231.752 284.974 232.123C284.663 232.673 284.119 233.339 282.848 233.944C281.578 234.545 279.578 235.064 276.411 235.247C275.587 235.294 274.239 235.315 272.511 235.315C264.596 235.315 248.657 234.878 236.91 234.656C228.284 234.495 223.742 233.57 221.387 232.606C220.209 232.125 219.582 231.639 219.247 231.249C218.912 230.856 218.852 230.57 218.818 230.381L218.817 230.373C218.81 230.312 218.798 230.094 218.786 229.777C218.691 227.372 218.516 218.791 218.364 210.82C218.289 206.833 218.219 202.997 218.168 200.158C218.143 198.739 218.122 197.569 218.108 196.753C218.093 195.938 218.086 195.478 218.086 195.477C218.083 195.321 217.978 195.185 217.828 195.142C217.825 195.141 216.798 194.848 215.25 194.387C212.93 193.697 209.448 192.632 206.554 191.633C205.107 191.134 203.806 190.649 202.879 190.242C202.416 190.038 202.045 189.851 201.809 189.702C201.691 189.628 201.607 189.562 201.569 189.523L201.549 189.501L201.547 189.496L201.406 189.584H201.566L201.547 189.496L201.406 189.584H201.566H201.541L201.566 189.585V189.584H201.541L201.566 189.585C201.566 189.542 201.606 189.273 201.676 188.885C202.201 185.921 204.459 174.959 206.585 164.502C207.649 159.272 208.678 154.166 209.443 150.243C209.826 148.281 210.141 146.614 210.362 145.374C210.473 144.754 210.559 144.24 210.619 143.848C210.678 143.451 210.711 143.192 210.712 143.019L210.709 142.94L210.702 142.785C210.697 142.199 211.036 141.487 211.567 140.868C212.093 140.248 212.799 139.725 213.438 139.471C213.604 139.404 214.13 139.217 214.897 138.953C217.59 138.022 223.342 136.088 228.42 134.388C230.959 133.537 233.33 132.745 235.065 132.165C236.801 131.585 237.899 131.22 237.902 131.219L237.789 130.881Z" fill="#17252F"/>
<path d="M219.001 160.812L219.063 158.414C219.069 158.218 218.914 158.054 218.718 158.049C218.522 158.044 218.358 158.198 218.354 158.395L218.29 160.792C218.285 160.988 218.44 161.152 218.636 161.157C218.832 161.163 218.995 161.008 219.001 160.812Z" fill="#17252F"/>
<path d="M218.085 195.493L218.937 163.224C218.942 163.028 218.787 162.866 218.591 162.86C218.395 162.855 218.231 163.01 218.226 163.206L217.375 195.474C217.37 195.67 217.524 195.834 217.72 195.839C217.917 195.844 218.08 195.689 218.085 195.493Z" fill="#17252F"/>
<path d="M308.719 180.238C295.502 179.523 289.19 188.481 287.444 191.512L315.612 205.091C315.612 205.091 315.907 204.796 315.759 201.108C315.686 199.258 311.482 188.056 308.719 180.238Z" fill="white"/>
<path d="M308.719 180.238L308.739 179.884C308.229 179.856 307.728 179.842 307.238 179.842C301.05 179.841 296.437 181.976 293.176 184.48C289.912 186.983 287.992 189.849 287.136 191.335C287.087 191.42 287.076 191.523 287.105 191.617C287.134 191.712 287.201 191.789 287.29 191.832L315.458 205.411C315.594 205.476 315.756 205.449 315.863 205.342C315.963 205.228 315.999 205.13 316.057 204.807C316.109 204.484 316.156 203.93 316.156 202.936C316.156 202.44 316.144 201.834 316.115 201.094C316.102 200.808 316.023 200.424 315.893 199.913C315.439 198.139 314.336 194.911 313.041 191.257C311.746 187.606 310.262 183.538 309.054 180.12C309.007 179.984 308.882 179.891 308.739 179.884L308.719 180.238L308.385 180.357C309.767 184.269 311.508 189.023 312.912 193.029C313.615 195.031 314.232 196.847 314.678 198.272C314.901 198.985 315.08 199.6 315.205 200.089C315.33 200.575 315.399 200.946 315.405 201.122C315.434 201.855 315.446 202.451 315.446 202.936C315.446 203.907 315.398 204.431 315.355 204.694C315.335 204.825 315.315 204.89 315.308 204.909L315.306 204.914L315.541 205.021L315.361 204.84L315.306 204.914L315.541 205.021L315.361 204.84L315.612 205.091L315.766 204.771L287.598 191.192L287.444 191.512L287.752 191.69C288.575 190.259 290.446 187.468 293.608 185.043C296.771 182.619 301.215 180.554 307.238 180.553C307.716 180.553 308.203 180.566 308.7 180.593L308.719 180.238Z" fill="#17252F"/>
<path d="M249.588 136.486C249.588 136.486 254.161 150.793 255.931 151.383C257.7 151.973 257.406 147.548 257.406 147.548C257.406 147.548 269.353 128.964 268.91 127.047C268.468 125.129 267.73 123.507 265.518 121.884C263.305 120.262 262.273 119.82 261.536 119.968C260.798 120.115 249.146 134.569 249.146 134.569L249.588 136.486Z" fill="white"/>
<path d="M249.588 136.486L249.25 136.594C249.251 136.598 250.395 140.177 251.763 143.838C252.447 145.669 253.187 147.519 253.872 148.96C254.216 149.681 254.544 150.299 254.854 150.769C255.008 151.005 255.158 151.204 255.31 151.364C255.465 151.523 255.617 151.651 255.818 151.72C255.96 151.767 256.1 151.793 256.239 151.793C256.626 151.797 256.952 151.58 257.15 151.306C257.453 150.894 257.589 150.347 257.676 149.788C257.76 149.23 257.779 148.66 257.779 148.23C257.779 147.814 257.761 147.531 257.76 147.525L257.406 147.549L257.705 147.74C257.706 147.739 260.586 143.259 263.469 138.466C264.91 136.069 266.351 133.596 267.436 131.56C267.979 130.542 268.432 129.633 268.753 128.893C268.914 128.523 269.042 128.195 269.131 127.91C269.221 127.625 269.275 127.39 269.278 127.168C269.278 127.102 269.272 127.036 269.256 126.968C268.812 125.009 268.006 123.258 265.728 121.598C264.744 120.877 263.987 120.383 263.367 120.061C262.748 119.741 262.258 119.587 261.81 119.586C261.691 119.586 261.576 119.597 261.466 119.619C261.335 119.651 261.292 119.692 261.226 119.735C261.111 119.819 260.985 119.936 260.824 120.096C260.226 120.689 259.192 121.865 257.962 123.309C254.276 127.639 248.871 134.345 248.869 134.346C248.801 134.431 248.775 134.543 248.8 134.649L249.242 136.566L249.25 136.594L249.588 136.486L249.935 136.407L249.492 134.489L249.146 134.569L249.423 134.792C249.424 134.79 250.15 133.889 251.254 132.533C252.909 130.497 255.409 127.441 257.563 124.881C258.64 123.601 259.63 122.446 260.382 121.607C260.758 121.188 261.076 120.847 261.31 120.614C261.426 120.498 261.523 120.408 261.59 120.352L261.659 120.299L261.66 120.298L261.56 120.094L261.605 120.316L261.66 120.298L261.56 120.094L261.605 120.316C261.669 120.303 261.736 120.296 261.81 120.296C262.085 120.295 262.474 120.398 263.04 120.692C263.605 120.985 264.34 121.461 265.308 122.171C267.454 123.755 268.122 125.25 268.564 127.127L268.567 127.168C268.569 127.255 268.534 127.449 268.454 127.696C268.158 128.639 267.291 130.376 266.169 132.404C264.484 135.452 262.218 139.193 260.373 142.169C259.451 143.657 258.634 144.954 258.049 145.879C257.462 146.804 257.108 147.355 257.107 147.356C257.066 147.42 257.046 147.496 257.052 147.572C257.052 147.572 257.055 147.635 257.06 147.751C257.065 147.867 257.069 148.033 257.069 148.23C257.069 148.772 257.033 149.556 256.879 150.166C256.804 150.471 256.697 150.728 256.581 150.88C256.458 151.034 256.375 151.078 256.239 151.082C256.187 151.082 256.123 151.073 256.043 151.046C256.023 151.043 255.933 150.989 255.825 150.874C255.619 150.66 255.348 150.255 255.06 149.728C254.039 147.877 252.748 144.525 251.722 141.654C251.208 140.216 250.759 138.897 250.439 137.937C250.118 136.977 249.928 136.38 249.927 136.378L249.588 136.486Z" fill="#17252F"/>
<path d="M231.004 131.472C231.004 131.472 230.12 142.091 229.824 143.713C229.529 145.336 228.202 147.843 229.234 148.286C230.267 148.728 234.987 144.894 236.019 143.272C237.052 141.649 236.757 141.059 237.052 139.584C237.347 138.109 233.069 130.587 231.004 131.472Z" fill="white"/>
<path d="M231.004 131.472L230.65 131.442C230.65 131.444 230.595 132.106 230.508 133.126C230.376 134.657 230.172 136.992 229.974 139.094C229.776 141.192 229.58 143.078 229.475 143.65C229.376 144.199 229.136 144.901 228.917 145.588C228.699 146.279 228.495 146.948 228.492 147.526C228.493 147.743 228.522 147.954 228.615 148.152C228.707 148.349 228.878 148.523 229.094 148.613C229.207 148.66 229.321 148.676 229.433 148.677C229.676 148.675 229.92 148.604 230.191 148.497C231.126 148.117 232.404 147.219 233.592 146.236C234.778 145.249 235.843 144.203 236.319 143.462C236.854 142.625 237.065 142.008 237.162 141.433C237.26 140.857 237.258 140.358 237.4 139.654C237.416 139.576 237.421 139.498 237.421 139.419C237.42 139.145 237.354 138.838 237.246 138.483C236.866 137.25 235.928 135.444 234.841 133.908C234.296 133.142 233.716 132.446 233.137 131.928C232.557 131.416 231.983 131.053 231.366 131.044C231.196 131.044 231.025 131.076 230.864 131.145C230.743 131.197 230.661 131.311 230.65 131.442L231.004 131.472L231.144 131.798C231.212 131.77 231.283 131.755 231.366 131.755C231.705 131.741 232.287 132.069 232.888 132.668C233.796 133.556 234.77 134.971 235.501 136.307C235.867 136.975 236.175 137.625 236.387 138.177C236.601 138.725 236.714 139.19 236.711 139.419L236.704 139.514C236.55 140.285 236.549 140.818 236.462 141.312C236.375 141.806 236.217 142.295 235.72 143.08C235.505 143.421 235.065 143.92 234.517 144.454C233.695 145.257 232.621 146.152 231.641 146.837C231.151 147.18 230.684 147.47 230.291 147.67C229.901 147.872 229.57 147.971 229.433 147.966L229.374 147.959C229.31 147.929 229.288 147.907 229.256 147.845C229.227 147.784 229.202 147.676 229.202 147.526C229.199 147.124 229.376 146.477 229.594 145.803C229.809 145.124 230.058 144.41 230.174 143.777C230.253 143.343 230.361 142.381 230.487 141.152C230.861 137.475 231.358 131.502 231.359 131.501L231.004 131.472Z" fill="#17252F"/>
<path d="M237.789 124.835C237.789 124.835 230.562 130.292 231.004 131.472C231.447 132.652 241.919 149.909 241.919 149.909C241.919 149.909 241.329 134.274 240.886 129.554C240.444 124.835 237.789 124.835 237.789 124.835Z" fill="white"/>
<path d="M237.789 124.835L237.575 124.551C237.572 124.554 235.867 125.841 234.156 127.306C233.3 128.04 232.443 128.817 231.79 129.509C231.463 129.856 231.187 130.18 230.984 130.478C230.785 130.78 230.638 131.039 230.63 131.355C230.63 131.433 230.641 131.516 230.672 131.597C230.714 131.706 230.782 131.841 230.886 132.039C231.655 133.495 234.331 137.995 236.823 142.149C239.314 146.3 241.615 150.093 241.615 150.093C241.699 150.231 241.866 150.295 242.021 150.249C242.176 150.202 242.28 150.057 242.274 149.895C242.274 149.89 241.685 134.267 241.24 129.521C241.015 127.099 240.204 125.809 239.397 125.15C238.592 124.49 237.839 124.479 237.789 124.479C237.712 124.479 237.637 124.504 237.575 124.551L237.789 124.835V125.19V125.101L237.787 125.19H237.789V125.101L237.787 125.19C237.814 125.191 238.389 125.213 239.006 125.75C239.623 126.287 240.322 127.362 240.533 129.588C240.753 131.93 241.011 137.022 241.214 141.517C241.315 143.766 241.403 145.867 241.465 147.406C241.527 148.945 241.564 149.919 241.564 149.921L241.919 149.909L242.223 149.724C242.221 149.721 241.568 148.646 240.58 147.01C239.097 144.556 236.863 140.847 234.958 137.642C234.005 136.04 233.136 134.563 232.483 133.433C232.158 132.869 231.887 132.391 231.688 132.029C231.49 131.671 231.359 131.41 231.337 131.347L231.282 131.367L231.34 131.358L231.337 131.347L231.282 131.367L231.34 131.358V131.355C231.332 131.326 231.398 131.122 231.57 130.879C231.867 130.442 232.427 129.845 233.089 129.217C234.083 128.273 235.315 127.245 236.295 126.457C236.785 126.062 237.213 125.727 237.518 125.491C237.823 125.254 238.003 125.119 238.003 125.118L237.789 124.835Z" fill="#17252F"/>
<path d="M235.577 118.492L241.919 149.909C241.919 149.909 244.721 144.599 245.164 144.156C245.606 143.713 251.359 133.537 251.359 133.537C251.359 133.537 262.42 125.72 262.42 124.835C262.42 123.95 263.01 114.805 263.01 114.805C263.01 114.805 253.423 121.147 250.474 121.885C247.523 122.622 235.577 118.492 235.577 118.492Z" fill="white"/>
<path d="M235.577 118.492L235.229 118.562L241.57 149.979C241.6 150.126 241.72 150.238 241.868 150.259C242.017 150.282 242.163 150.207 242.233 150.074C242.233 150.073 242.408 149.743 242.677 149.239C243.081 148.483 243.698 147.338 244.253 146.343C244.53 145.847 244.793 145.386 245.005 145.034C245.111 144.858 245.204 144.709 245.278 144.597C245.349 144.488 245.413 144.408 245.415 144.407C245.485 144.334 245.527 144.269 245.601 144.162C245.862 143.774 246.363 142.939 246.979 141.889C248.824 138.743 251.667 133.712 251.668 133.711L251.359 133.536L251.563 133.826C251.565 133.825 254.332 131.87 257.102 129.802C258.487 128.768 259.873 127.705 260.918 126.842C261.441 126.409 261.879 126.027 262.194 125.715C262.353 125.559 262.48 125.421 262.578 125.294C262.627 125.229 262.669 125.168 262.704 125.099C262.738 125.031 262.773 124.955 262.775 124.834C262.775 124.638 262.811 123.892 262.867 122.914C262.95 121.443 263.074 119.421 263.178 117.767C263.282 116.113 263.365 114.831 263.365 114.828C263.373 114.693 263.305 114.565 263.189 114.498C263.072 114.43 262.927 114.434 262.814 114.508C262.813 114.51 262.218 114.903 261.275 115.509C259.86 116.416 257.668 117.794 255.559 119.013C254.505 119.622 253.47 120.191 252.568 120.639C251.668 121.088 250.89 121.416 250.387 121.54C250.188 121.59 249.911 121.618 249.579 121.617C248.645 121.619 247.291 121.406 245.808 121.082C243.579 120.596 241.047 119.865 239.075 119.254C238.089 118.949 237.243 118.675 236.643 118.476C236.044 118.278 235.693 118.157 235.693 118.157C235.573 118.115 235.438 118.141 235.343 118.225C235.247 118.309 235.203 118.438 235.229 118.562L235.577 118.492L235.46 118.828C235.464 118.829 237.985 119.701 241.004 120.574C242.514 121.011 244.147 121.447 245.656 121.776C247.167 122.105 248.546 122.327 249.579 122.328C249.949 122.328 250.276 122.3 250.56 122.229C251.362 122.027 252.517 121.485 253.844 120.781C257.81 118.672 263.202 115.104 263.206 115.101L263.01 114.805L262.656 114.782C262.656 114.782 262.508 117.069 262.36 119.466C262.287 120.665 262.213 121.891 262.158 122.874C262.102 123.86 262.065 124.588 262.065 124.834H262.262L262.073 124.776L262.065 124.834H262.262L262.073 124.776L262.078 124.778L262.073 124.775V124.776L262.078 124.778L262.073 124.775C262.061 124.801 261.997 124.892 261.896 125.002C261.512 125.427 260.629 126.179 259.545 127.037C257.916 128.327 255.817 129.881 254.126 131.111C253.28 131.725 252.537 132.26 252.005 132.64C251.474 133.021 251.154 133.246 251.153 133.246L251.049 133.362C251.048 133.363 250.69 133.997 250.144 134.958C249.325 136.399 248.086 138.571 247.011 140.423C246.473 141.349 245.977 142.195 245.595 142.829C245.405 143.145 245.243 143.408 245.12 143.599C245.059 143.695 245.007 143.773 244.969 143.828L244.922 143.892L244.91 143.907L244.909 143.909L244.988 143.98L244.912 143.905L244.909 143.909L244.988 143.98L244.912 143.905C244.858 143.961 244.817 144.017 244.765 144.088C244.579 144.35 244.301 144.819 243.973 145.395C242.991 147.116 241.606 149.741 241.605 149.742L241.919 149.908L242.267 149.838L235.925 118.422L235.577 118.492Z" fill="#17252F"/>
<path d="M235.577 118.492L238.251 131.74L250.849 124.804L250.474 121.885C247.523 122.622 235.577 118.492 235.577 118.492Z" fill="#17252F"/>
<path d="M235.577 118.492L235.229 118.562L237.903 131.81C237.926 131.921 238 132.015 238.102 132.062C238.204 132.11 238.324 132.106 238.423 132.051L251.02 125.115C251.148 125.045 251.22 124.903 251.202 124.759L250.826 121.839C250.813 121.739 250.758 121.649 250.674 121.591C250.59 121.534 250.486 121.516 250.387 121.54C250.188 121.59 249.911 121.618 249.579 121.617C248.645 121.619 247.291 121.406 245.808 121.082C243.579 120.597 241.047 119.865 239.075 119.254C238.089 118.949 237.243 118.675 236.643 118.476C236.044 118.278 235.693 118.157 235.693 118.157C235.573 118.115 235.438 118.141 235.343 118.225C235.247 118.309 235.203 118.438 235.229 118.562L235.577 118.492L235.46 118.828C235.464 118.83 237.985 119.701 241.004 120.574C242.514 121.011 244.147 121.447 245.656 121.776C247.167 122.105 248.546 122.327 249.579 122.328C249.949 122.328 250.276 122.3 250.56 122.229L250.474 121.885L250.122 121.93L250.466 124.609L238.504 131.195L235.925 118.422L235.577 118.492Z" fill="#17252F"/>
<path d="M229.824 91.9439C229.824 91.9439 228.054 89.2888 227.022 92.9762C225.99 96.6635 230.709 102.858 230.709 102.858L231.299 92.0916L229.824 91.9439Z" fill="white"/>
<path d="M229.824 91.944L230.12 91.7472C230.11 91.7337 229.946 91.485 229.671 91.2243C229.396 90.9685 229.008 90.6715 228.491 90.6644C228.13 90.6602 227.752 90.842 227.455 91.2029C227.155 91.5639 226.901 92.096 226.68 92.8804C226.568 93.2811 226.519 93.701 226.519 94.1315C226.525 96.0981 227.512 98.3063 228.481 100.053C229.453 101.796 230.421 103.065 230.427 103.074C230.518 103.192 230.672 103.242 230.814 103.198C230.957 103.154 231.056 103.027 231.064 102.877L231.654 92.1109C231.664 91.9212 231.524 91.7571 231.335 91.7379L229.86 91.5909L229.824 91.944L229.789 92.2978L230.926 92.4115L230.355 102.839L230.709 102.858L230.992 102.643C230.992 102.643 230.935 102.568 230.832 102.426C230.472 101.929 229.563 100.622 228.75 99.0516C227.934 97.4828 227.225 95.6413 227.23 94.1315C227.23 93.755 227.272 93.399 227.364 93.0722C227.566 92.3454 227.797 91.8992 228 91.6598C228.208 91.4196 228.351 91.3792 228.491 91.3749C228.69 91.3671 228.969 91.5326 229.182 91.7394C229.288 91.8402 229.378 91.944 229.439 92.0207L229.508 92.1124L229.525 92.1358L229.529 92.1408C229.588 92.2296 229.683 92.2871 229.789 92.2978L229.824 91.944Z" fill="#17252F"/>
<path d="M230.857 80.8817C230.857 80.8817 230.857 107.726 231.299 110.233C231.742 112.74 238.084 125.572 241.034 126.457C243.984 127.342 248.704 127.194 250.179 126.752C251.653 126.309 261.83 118.197 263.01 114.805C264.19 111.413 265.223 106.693 265.223 106.693C265.223 106.693 269.648 104.333 270.68 100.941C271.712 97.5487 271.27 94.4511 270.237 93.271C269.205 92.0916 268.468 91.9438 268.468 91.9438L266.846 89.5836C266.846 89.5836 267.288 85.7492 267.288 84.8639C267.288 83.9794 266.403 78.9649 260.651 76.6047C254.898 74.2452 238.231 74.8349 234.692 75.5723C231.152 76.3098 230.857 80.8817 230.857 80.8817Z" fill="white"/>
<path d="M230.857 80.8818H230.502C230.502 80.8825 230.502 87.5944 230.557 94.6203C230.585 98.1329 230.626 101.725 230.689 104.597C230.72 106.033 230.756 107.289 230.798 108.267C230.842 109.249 230.888 109.937 230.95 110.295C231.077 110.997 231.56 112.261 232.268 113.846C233.33 116.216 234.891 119.247 236.473 121.784C237.264 123.052 238.06 124.196 238.808 125.076C239.182 125.517 239.545 125.891 239.895 126.185C240.246 126.477 240.584 126.692 240.933 126.798C242.547 127.281 244.619 127.458 246.45 127.459C248.09 127.457 249.512 127.32 250.28 127.093C250.542 127.01 250.859 126.827 251.297 126.55C252.803 125.582 255.523 123.46 258.017 121.193C259.263 120.06 260.45 118.893 261.397 117.814C262.343 116.731 263.053 115.753 263.346 114.922C264.536 111.498 265.568 106.776 265.57 106.769L265.223 106.693L265.391 107.007C265.403 106.999 266.527 106.4 267.79 105.363C269.05 104.325 270.465 102.854 271.02 101.044C271.44 99.6625 271.623 98.3282 271.623 97.1389C271.617 95.3336 271.219 93.8672 270.505 93.0373C269.428 91.8047 268.612 91.6086 268.537 91.5958L268.468 91.9439L268.76 91.7428L267.138 89.3826L266.846 89.5837L267.198 89.6249C267.198 89.6242 267.309 88.6644 267.42 87.5923C267.531 86.5159 267.642 85.3486 267.644 84.864C267.642 84.5919 267.582 84.0981 267.403 83.4381C266.868 81.4737 265.222 78.0939 260.786 76.2758C259.178 75.6186 256.829 75.2001 254.157 74.9344C251.488 74.6701 248.505 74.5657 245.666 74.5657C243.217 74.5657 240.877 74.6431 238.941 74.7639C237.002 74.8854 235.476 75.0467 234.62 75.2243C233.663 75.4225 232.913 75.8886 232.347 76.4634C231.497 77.3273 231.045 78.4229 230.796 79.2996C230.548 80.177 230.504 80.842 230.503 80.8591L230.502 80.8818H230.857L231.212 80.9053L231.215 80.8626C231.235 80.6339 231.362 79.5241 231.872 78.42C232.127 77.8673 232.475 77.3181 232.945 76.8719C233.415 76.4257 234.002 76.0797 234.765 75.9199C235.547 75.7565 237.067 75.5923 238.985 75.473C240.905 75.3536 243.232 75.2762 245.666 75.2762C248.487 75.2762 251.452 75.3799 254.088 75.6414C256.722 75.9007 259.035 76.3234 260.516 76.933C263.315 78.0833 264.908 79.8609 265.818 81.463C266.271 82.2637 266.552 83.0196 266.717 83.6257C266.883 84.2289 266.934 84.6942 266.933 84.864C266.934 85.2647 266.824 86.4576 266.714 87.5191C266.603 88.5862 266.493 89.5411 266.493 89.5432C266.483 89.6292 266.504 89.7137 266.553 89.7855L268.175 92.145C268.227 92.221 268.308 92.2743 268.398 92.292L268.425 92.1578L268.392 92.2913L268.398 92.292L268.425 92.1578L268.392 92.2913C268.407 92.2963 269.044 92.4483 269.97 93.5055C270.5 94.0974 270.918 95.4458 270.912 97.1389C270.912 98.2558 270.741 99.5233 270.341 100.838C269.863 102.42 268.549 103.825 267.339 104.814C266.736 105.31 266.162 105.704 265.74 105.972C265.529 106.106 265.357 106.209 265.237 106.278L265.101 106.355L265.056 106.379C264.964 106.428 264.898 106.515 264.876 106.617C264.876 106.618 264.812 106.909 264.697 107.403C264.353 108.883 263.551 112.17 262.675 114.688C262.42 115.437 261.583 116.575 260.454 117.8C258.758 119.646 256.409 121.735 254.353 123.396C253.324 124.226 252.368 124.951 251.605 125.485C251.224 125.752 250.891 125.971 250.626 126.131C250.362 126.29 250.153 126.391 250.076 126.412C249.454 126.602 248.039 126.751 246.45 126.749C244.668 126.749 242.638 126.569 241.136 126.117C240.862 126.038 240.468 125.775 240.034 125.353C239.27 124.617 238.371 123.423 237.465 122.021C236.104 119.917 234.714 117.343 233.632 115.095C233.092 113.971 232.628 112.929 232.283 112.07C231.937 111.214 231.711 110.529 231.65 110.171C231.6 109.902 231.55 109.202 231.508 108.237C231.361 104.84 231.286 97.9964 231.249 92.0078C231.231 89.0139 231.222 86.2317 231.218 84.199C231.213 82.1664 231.213 80.8854 231.213 80.8818H230.857Z" fill="#17252F"/>
<path d="M240.886 95.4835C240.886 96.7055 240.292 97.6959 239.559 97.6959C238.826 97.6959 238.231 96.7055 238.231 95.4835C238.231 94.2615 238.826 93.2711 239.559 93.2711C240.292 93.2711 240.886 94.2615 240.886 95.4835Z" fill="#17252F"/>
<path d="M255.93 96.8114C255.93 98.0327 255.336 99.0238 254.603 99.0238C253.87 99.0238 253.276 98.0327 253.276 96.8114C253.276 95.5894 253.87 94.5983 254.603 94.5983C255.336 94.5983 255.93 95.5894 255.93 96.8114Z" fill="#17252F"/>
<path d="M236.123 90.2778L236.133 90.2678C236.258 90.1421 237.51 89.0174 239.158 89.0259C239.995 89.0273 240.949 89.2973 241.988 90.1527C242.139 90.2778 242.363 90.2564 242.488 90.1051C242.613 89.9538 242.591 89.73 242.44 89.6049C241.294 88.655 240.155 88.3133 239.158 88.3154C238.108 88.3154 237.228 88.682 236.612 89.0415C235.995 89.4025 235.636 89.7605 235.62 89.7748C235.482 89.914 235.482 90.1385 235.62 90.2771C235.76 90.4163 235.984 90.4163 236.123 90.2778Z" fill="#17252F"/>
<path d="M251.7 90.6186L251.705 90.6158C251.789 90.5618 252.709 90.0162 253.96 90.0183C255.072 90.0233 256.456 90.424 257.877 92.0304C258.007 92.1781 258.231 92.1924 258.378 92.0623C258.525 91.933 258.539 91.7085 258.41 91.5614C256.88 89.8158 255.253 89.3029 253.96 89.3078C252.406 89.3107 251.344 90.0048 251.312 90.024C251.148 90.1306 251.101 90.3508 251.209 90.5156C251.316 90.6798 251.536 90.7259 251.7 90.6186Z" fill="#17252F"/>
<path d="M244.219 93.2446L243.04 109.026C243.033 109.122 243.065 109.217 243.128 109.289C243.192 109.36 243.282 109.404 243.379 109.408L250.015 109.703C250.211 109.711 250.377 109.559 250.386 109.363C250.395 109.168 250.243 109.002 250.047 108.993L243.776 108.715L244.927 93.2979C244.942 93.1018 244.796 92.9313 244.6 92.9171C244.405 92.9022 244.234 93.0492 244.219 93.2446Z" fill="#17252F"/>
<path d="M244.096 116.191L247.045 116.487C247.241 116.506 247.415 116.364 247.435 116.168C247.454 115.973 247.312 115.799 247.116 115.78L244.167 115.484C243.972 115.465 243.798 115.607 243.778 115.802C243.759 115.998 243.901 116.172 244.096 116.191Z" fill="#17252F"/>
<path d="M228.497 78.6694C228.497 78.6694 226.727 84.2743 227.465 85.7493C228.202 87.2242 229.529 90.616 229.529 90.616C229.529 90.616 229.972 94.8938 230.415 95.7791L230.857 80.8818C230.857 80.8818 230.415 77.0474 228.497 78.6694Z" fill="#17252F"/>
<path d="M228.497 78.6694L228.158 78.5621C228.157 78.5671 227.852 79.5326 227.546 80.7738C227.241 82.0178 226.931 83.5262 226.93 84.6679C226.932 85.146 226.978 85.5624 227.147 85.9084C227.506 86.6267 228.022 87.8423 228.445 88.8711C228.868 89.9005 229.197 90.7439 229.198 90.746L229.529 90.616L229.176 90.6529C229.176 90.6558 229.287 91.7279 229.454 92.9151C229.538 93.509 229.635 94.1314 229.741 94.6678C229.85 95.2078 229.953 95.6433 230.097 95.9374C230.17 96.0838 230.332 96.1605 230.491 96.1257C230.65 96.0902 230.765 95.9524 230.77 95.789L231.212 80.8924L231.21 80.8413C231.208 80.8271 231.132 80.1578 230.895 79.4608C230.774 79.1113 230.616 78.7532 230.382 78.4562C230.153 78.1635 229.808 77.9134 229.372 77.9141C229.006 77.9148 228.64 78.0825 228.267 78.398C228.216 78.442 228.179 78.4981 228.158 78.5621L228.497 78.6694L228.726 78.9408C229.023 78.6893 229.236 78.6239 229.372 78.6246C229.528 78.6253 229.665 78.702 229.825 78.8988C230.061 79.1887 230.248 79.7067 230.355 80.1422C230.409 80.3596 230.447 80.5578 230.471 80.6999C230.483 80.771 230.492 80.8278 230.497 80.8661L230.505 80.923L230.857 80.8818L230.502 80.8711L230.059 95.7683L230.414 95.779L230.732 95.6199C230.655 95.4714 230.537 95.0408 230.438 94.53C230.285 93.757 230.146 92.7659 230.045 91.9716C229.944 91.1773 229.883 90.5812 229.882 90.5798L229.86 90.4867C229.857 90.481 228.535 87.097 227.782 85.5901C227.697 85.4267 227.637 85.0892 227.64 84.6679C227.638 83.6498 227.935 82.1592 228.235 80.9436C228.386 80.3347 228.536 79.7919 228.649 79.4012C228.761 79.0111 228.836 78.7774 228.836 78.7766L228.497 78.6694Z" fill="#17252F"/>
<path d="M236.167 66.1331C236.167 66.1331 222.745 71.5902 223.335 75.1298C223.924 78.6694 228.497 78.6694 228.497 78.6694C228.497 78.6694 224.957 82.5045 232.184 83.8317C239.411 85.1589 252.981 78.965 252.981 78.965C252.981 78.965 251.064 83.242 252.981 83.6846C254.898 84.1266 259.176 83.5369 259.176 83.5369C259.176 83.5369 259.323 87.8139 260.946 88.8462C262.568 89.8786 264.927 90.0263 264.927 90.0263C264.927 90.0263 264.043 98.2856 264.78 98.7282C265.518 99.1709 265.665 98.4334 265.813 97.9908C265.96 97.5488 266.993 92.6814 266.993 92.6814L268.468 91.9439L268.91 88.1095C268.91 88.1095 272.745 82.0619 271.565 78.5223C270.385 74.982 266.551 70.9998 266.551 70.9998C266.551 70.9998 261.241 63.7729 251.211 62.7406C241.181 61.7082 236.167 66.1331 236.167 66.1331Z" fill="#17252F"/>
<path d="M236.167 66.133L236.033 65.8033C236.026 65.8069 232.805 67.1156 229.571 68.8761C227.953 69.7571 226.333 70.749 225.099 71.7607C224.481 72.2672 223.959 72.7781 223.581 73.296C223.205 73.8132 222.962 74.3454 222.961 74.8988C222.961 74.9955 222.969 75.0921 222.984 75.188C223.143 76.1471 223.583 76.8882 224.142 77.4303C224.984 78.2459 226.071 78.6331 226.942 78.8292C227.814 79.0239 228.48 79.0246 228.497 79.0246V78.6693L228.236 78.4285C228.224 78.4413 227.993 78.6935 227.756 79.0992C227.522 79.5056 227.276 80.069 227.275 80.7176C227.269 81.3798 227.559 82.1194 228.314 82.724C229.068 83.3329 230.26 83.838 232.12 84.1812C232.846 84.314 233.625 84.3737 234.443 84.3737C238.253 84.3709 242.906 83.0956 246.627 81.8274C250.345 80.5585 253.121 79.291 253.128 79.2874L252.981 78.9649L252.657 78.8192C252.653 78.8271 252.436 79.3116 252.217 79.9794C251.999 80.6487 251.775 81.4949 251.774 82.2636C251.774 82.6487 251.829 83.0217 252.002 83.3485C252.171 83.676 252.489 83.9403 252.9 84.0306C253.472 84.1613 254.187 84.2032 254.942 84.2039C256.948 84.2032 259.216 83.8899 259.224 83.8885L259.176 83.5368L258.821 83.5489C258.821 83.5602 258.858 84.6437 259.103 85.8742C259.227 86.4902 259.402 87.1432 259.66 87.725C259.918 88.3055 260.257 88.8263 260.755 89.146C262.494 90.243 264.879 90.3737 264.905 90.3808L264.927 90.0263L264.574 89.9886C264.574 89.995 264.132 94.1065 264.132 96.7175C264.132 97.2632 264.151 97.7434 264.2 98.1228C264.225 98.3132 264.257 98.4781 264.307 98.6251C264.361 98.7679 264.414 98.9129 264.598 99.033C264.793 99.1495 264.984 99.2191 265.183 99.2198C265.362 99.2219 265.535 99.1537 265.655 99.0543C265.837 98.9051 265.927 98.7211 265.997 98.5534C266.065 98.3843 266.11 98.2209 266.15 98.1036V98.1029C266.177 98.0205 266.208 97.8997 266.251 97.7193C266.55 96.4788 267.339 92.7573 267.34 92.7545L266.993 92.6813L267.151 92.9989L268.626 92.2614C268.733 92.2081 268.806 92.1037 268.82 91.9843L269.263 88.1499L268.91 88.1094L269.21 88.2991C269.216 88.2906 269.942 87.1439 270.673 85.5467C271.402 83.9467 272.142 81.9048 272.146 80.0519C272.146 79.4807 272.074 78.9265 271.901 78.4093C271.287 76.5706 270.014 74.6722 268.897 73.2171C267.778 71.7635 266.812 70.7596 266.806 70.7532L266.551 70.9998L266.836 70.7895C266.822 70.7696 265.474 68.938 262.855 66.9728C260.237 65.009 256.341 62.911 251.247 62.3867C250.187 62.278 249.182 62.229 248.232 62.229C240.08 62.2282 235.973 65.8289 235.931 65.8666L236.167 66.133L236.402 66.3987L236.409 66.3923C236.611 66.2218 240.544 62.9401 248.232 62.9394C249.158 62.9394 250.139 62.987 251.174 63.0936C256.11 63.6016 259.884 65.6335 262.429 67.5412C263.7 68.4953 264.663 69.4168 265.306 70.0982C265.627 70.4392 265.869 70.7191 266.028 70.9138C266.109 71.0104 266.168 71.0857 266.208 71.1362L266.264 71.2101L266.294 71.2463C266.295 71.2463 266.351 71.3053 266.457 71.4189C267.195 72.2097 270.241 75.6491 271.228 78.6345C271.37 79.0615 271.435 79.5404 271.435 80.0519C271.438 81.7144 270.738 83.7009 270.027 85.2512C269.673 86.027 269.317 86.6963 269.05 87.1709C268.917 87.4074 268.806 87.5957 268.729 87.7243C268.652 87.8522 268.61 87.919 268.61 87.919L268.557 88.0682L268.136 91.7122L266.833 92.363C266.737 92.4113 266.667 92.5015 266.644 92.6074C266.644 92.6103 266.387 93.8237 266.111 95.0948C265.972 95.7299 265.83 96.3793 265.713 96.8966C265.654 97.1545 265.602 97.3797 265.56 97.5523C265.52 97.7228 265.486 97.8507 265.476 97.8791V97.8784C265.414 98.0674 265.357 98.2685 265.29 98.3907L265.211 98.4994L265.183 98.5093C265.161 98.51 265.088 98.4994 264.963 98.4241L264.875 98.5711L265 98.4532L264.963 98.4241L264.875 98.5711L265 98.4532L264.961 98.4901L265.007 98.461L265 98.4532L264.961 98.4901L265.007 98.461C265.002 98.4553 264.973 98.3914 264.951 98.294C264.878 97.9957 264.841 97.4116 264.842 96.7175C264.842 95.4479 264.951 93.7797 265.062 92.4341C265.116 91.7612 265.171 91.168 265.212 90.7438C265.253 90.319 265.28 90.0646 265.28 90.0639C265.291 89.9673 265.262 89.8714 265.199 89.7968C265.136 89.7229 265.047 89.6774 264.95 89.6717C264.949 89.6717 264.919 89.6696 264.855 89.6639C264.406 89.6284 262.453 89.3918 261.136 88.5463C260.823 88.3503 260.534 87.9495 260.309 87.4373C259.969 86.6714 259.768 85.6838 259.66 84.8959C259.605 84.5016 259.573 84.157 259.554 83.9112C259.545 83.789 259.539 83.691 259.535 83.6249C259.532 83.5581 259.53 83.5247 259.53 83.5247C259.527 83.4245 259.481 83.3293 259.405 83.2654C259.328 83.2007 259.226 83.1716 259.127 83.1851C259.127 83.1851 258.99 83.2043 258.749 83.2327C258.028 83.3201 256.394 83.4941 254.942 83.4934C254.217 83.4941 253.535 83.4487 253.06 83.3378C252.833 83.281 252.726 83.1844 252.628 83.0139C252.535 82.8419 252.483 82.5784 252.484 82.2636C252.482 81.6348 252.684 80.8313 252.892 80.2004C252.996 79.8842 253.1 79.61 253.177 79.4153C253.217 79.318 253.248 79.2405 253.27 79.188L253.305 79.1098C253.365 78.9748 253.336 78.8171 253.231 78.7127C253.126 78.6082 252.968 78.5798 252.833 78.6416C252.833 78.6416 252.664 78.7191 252.348 78.8562C251.246 79.3365 248.377 80.5414 244.976 81.6242C241.577 82.7077 237.642 83.6647 234.443 83.6633C233.66 83.6633 232.922 83.6057 232.249 83.4821C230.458 83.1545 229.373 82.6693 228.762 82.172C228.153 81.6711 227.991 81.1887 227.985 80.7176C227.984 80.2572 228.172 79.7969 228.37 79.4558C228.469 79.2853 228.569 79.1461 228.643 79.0501L228.73 78.9422L228.753 78.9159L228.758 78.9102C228.854 78.8065 228.879 78.6565 228.822 78.5272C228.766 78.3972 228.638 78.3141 228.497 78.3141L228.454 78.3134C228.227 78.3084 227.121 78.2523 226.043 77.8096C225.503 77.5894 224.973 77.2754 224.552 76.8349C224.132 76.3937 223.813 75.8317 223.686 75.0708L223.671 74.8988C223.669 74.5663 223.828 74.1614 224.155 73.7145C224.723 72.933 225.774 72.0619 227.025 71.2257C228.902 69.9689 231.226 68.7738 233.076 67.8971C234.001 67.4588 234.808 67.0993 235.384 66.8499C235.959 66.6005 236.299 66.4619 236.3 66.4619L236.402 66.3987L236.167 66.133Z" fill="#17252F"/>
<path d="M199.437 185.162C199.437 185.162 199.902 186.744 199.344 192.796C198.786 198.847 198.692 206.017 201.392 210.02C204.092 214.024 211.726 216.073 214.334 214.955C216.94 213.838 217.686 211.883 217.779 207.041C217.872 202.199 211.261 183.858 211.261 183.858L199.623 182.368L199.437 185.162Z" fill="white"/>
<path d="M199.437 185.162L199.096 185.262L199.152 185.245L199.095 185.26L199.096 185.262L199.152 185.245L199.095 185.26C199.105 185.292 199.264 185.922 199.264 187.721C199.264 188.873 199.198 190.503 198.99 192.764C198.806 194.763 198.671 196.887 198.671 198.984C198.676 203.255 199.216 207.418 201.098 210.219C202.261 211.939 204.24 213.272 206.352 214.192C208.465 215.109 210.712 215.611 212.46 215.613C213.243 215.612 213.928 215.514 214.474 215.281C215.834 214.705 216.774 213.848 217.326 212.533C217.881 211.221 218.086 209.485 218.134 207.048L218.135 206.938C218.133 205.62 217.718 203.549 217.105 201.137C215.264 193.916 211.597 183.743 211.596 183.737C211.55 183.611 211.438 183.523 211.306 183.506L199.668 182.016C199.571 182.004 199.473 182.032 199.397 182.094C199.322 182.156 199.275 182.247 199.268 182.345L199.083 185.138L199.096 185.262L199.437 185.162L199.792 185.185L199.952 182.768L211.216 184.21L211.261 183.858L210.927 183.978C210.927 183.979 211.029 184.259 211.206 184.763C211.829 186.525 213.387 191.003 214.788 195.581C215.489 197.869 216.15 200.183 216.635 202.191C217.12 204.196 217.426 205.907 217.424 206.938L217.424 207.034C217.379 209.439 217.165 211.101 216.672 212.256C216.177 213.408 215.44 214.088 214.194 214.629C213.786 214.805 213.181 214.904 212.46 214.903C210.847 214.904 208.663 214.423 206.635 213.54C204.604 212.659 202.729 211.372 201.687 209.821C199.945 207.252 199.377 203.195 199.382 198.984C199.382 196.917 199.515 194.814 199.698 192.829C199.908 190.551 199.974 188.899 199.974 187.721C199.974 185.758 199.792 185.11 199.777 185.061L199.437 185.162Z" fill="#17252F"/>
<path d="M199.621 174.399C199.621 174.399 196.261 172.959 194.614 171.038C192.968 169.118 190.911 166.1 190.361 165.894C189.813 165.688 187.069 167.609 188.03 170.078C188.99 172.547 192.693 175.565 192.693 175.565C192.693 175.565 194.752 178.789 195.094 179.612C195.438 180.435 196.447 183.52 197.48 184.664C200.309 187.795 202.297 188.598 206.549 188.666C210.802 188.735 211.448 187.053 211.928 185.27C212.408 183.486 212.606 180.388 212.332 180.319C212.057 180.251 200.651 177.897 200.17 176.731C199.69 175.565 199.621 174.399 199.621 174.399Z" fill="white"/>
<path d="M199.621 174.399L199.761 174.073C199.761 174.073 199.714 174.052 199.62 174.01C198.974 173.722 196.239 172.399 194.884 170.806C194.072 169.86 193.148 168.628 192.357 167.606C191.962 167.094 191.599 166.634 191.295 166.281C191.142 166.105 191.005 165.956 190.879 165.837C190.749 165.718 190.648 165.626 190.487 165.561V165.56C190.408 165.531 190.334 165.523 190.266 165.523C189.991 165.53 189.741 165.64 189.449 165.808C189.019 166.065 188.538 166.478 188.15 167.025C187.764 167.57 187.473 168.254 187.472 169.031C187.472 169.408 187.542 169.804 187.699 170.206C188.219 171.533 189.409 172.914 190.469 173.997C191.529 175.074 192.463 175.835 192.47 175.84L192.693 175.565L192.394 175.756C192.395 175.758 192.907 176.56 193.463 177.466C193.74 177.918 194.028 178.397 194.267 178.81C194.504 179.221 194.696 179.578 194.766 179.749V179.749C194.929 180.138 195.272 181.128 195.701 182.154C196.134 183.187 196.64 184.257 197.217 184.902C198.646 186.485 199.893 187.511 201.339 188.139C202.785 188.767 204.398 188.986 206.543 189.021C206.629 189.022 206.715 189.023 206.798 189.023C208.855 189.024 210.12 188.602 210.931 187.891C211.741 187.18 212.033 186.242 212.27 185.362C212.614 184.081 212.81 182.222 212.811 181.126C212.811 180.878 212.802 180.671 212.777 180.502C212.764 180.416 212.749 180.34 212.717 180.257L212.638 180.119C212.599 180.068 212.528 180.003 212.418 179.974C212.363 179.961 212.167 179.92 211.825 179.846C210.641 179.59 207.854 178.981 205.318 178.309C204.052 177.974 202.846 177.622 201.944 177.296C201.493 177.133 201.118 176.976 200.857 176.838C200.728 176.769 200.627 176.705 200.565 176.654L200.503 176.597L200.494 176.586L200.447 176.617L200.499 176.595L200.494 176.586L200.447 176.617L200.499 176.595C200.272 176.046 200.14 175.486 200.066 175.066C200.028 174.856 200.006 174.681 199.993 174.561L199.979 174.422L199.976 174.378C199.968 174.243 199.885 174.125 199.761 174.073L199.621 174.399L199.267 174.42C199.269 174.441 199.336 175.635 199.842 176.866C199.919 177.042 200.038 177.145 200.172 177.248C200.427 177.435 200.78 177.604 201.228 177.784C202.784 178.407 205.471 179.107 207.815 179.667C208.986 179.946 210.069 180.189 210.872 180.366C211.274 180.454 211.606 180.526 211.845 180.577C212.08 180.627 212.236 180.662 212.245 180.664L212.317 180.376L212.084 180.563C212.106 180.59 212.157 180.642 212.246 180.664L212.317 180.376L212.084 180.563L212.23 180.446L212.057 180.519L212.084 180.563L212.23 180.446L212.057 180.519L212.069 180.514L212.057 180.519L212.057 180.519L212.069 180.514L212.057 180.519C212.062 180.529 212.079 180.608 212.086 180.715C212.096 180.823 212.101 180.963 212.101 181.126C212.103 182.14 211.905 183.996 211.585 185.177C211.352 186.045 211.093 186.806 210.463 187.357C209.834 187.909 208.769 188.312 206.798 188.313C206.718 188.313 206.637 188.312 206.555 188.31C204.448 188.277 202.941 188.06 201.623 187.488C200.304 186.914 199.142 185.973 197.744 184.425C197.287 183.925 196.771 182.882 196.357 181.881C195.936 180.873 195.603 179.91 195.422 179.476C195.321 179.235 195.127 178.88 194.882 178.455C194.152 177.189 192.995 175.376 192.993 175.374L192.918 175.29C192.918 175.29 192.863 175.246 192.762 175.16C192.408 174.86 191.5 174.068 190.585 173.092C189.668 172.119 188.746 170.947 188.361 169.949C188.236 169.626 188.183 169.321 188.183 169.031C188.181 168.24 188.585 167.529 189.077 167.014C189.321 166.758 189.585 166.554 189.812 166.419C190.033 166.282 190.237 166.227 190.266 166.233V166.215L190.263 166.233H190.266V166.215L190.263 166.233L190.283 166.105L190.237 166.226L190.263 166.233L190.283 166.105L190.237 166.226H190.236L190.237 166.227C190.265 166.242 190.354 166.313 190.459 166.419C190.837 166.799 191.468 167.611 192.164 168.519C192.863 169.429 193.637 170.443 194.344 171.269C195.217 172.284 196.494 173.135 197.559 173.746C198.622 174.357 199.473 174.722 199.481 174.725L199.621 174.399Z" fill="#17252F"/>
<path d="M176.61 226.437V205.273C176.612 198.63 179.29 192.656 183.641 188.298C187.999 183.947 193.974 181.268 200.617 181.266C207.26 181.268 213.234 183.947 217.592 188.298C221.943 192.656 224.621 198.63 224.624 205.273V264.285C224.621 271.549 227.58 278.164 232.342 282.919C237.098 287.682 243.713 290.641 250.977 290.639C258.241 290.641 264.856 287.682 269.612 282.919C274.374 278.164 277.332 271.549 277.33 264.285V126.952C277.33 124.597 275.422 122.689 273.067 122.689C270.713 122.689 268.804 124.597 268.804 126.952V264.285C268.802 269.221 266.816 273.651 263.583 276.891C260.343 280.124 255.914 282.111 250.977 282.113C246.041 282.111 241.61 280.124 238.371 276.891C235.138 273.651 233.151 269.221 233.149 264.285V205.273C233.151 196.303 229.501 188.143 223.62 182.269C217.747 176.389 209.586 172.738 200.617 172.74C191.646 172.738 183.486 176.389 177.612 182.269C171.732 188.143 168.082 196.303 168.084 205.273V226.437C168.084 228.791 169.992 230.7 172.347 230.7C174.701 230.7 176.61 228.791 176.61 226.437Z" fill="#17252F"/>
<path d="M179.629 221.948H165.586V237.009H179.629V221.948Z" fill="#66B5FF"/>
<path d="M179.629 221.948V221.593H165.587C165.493 221.593 165.402 221.63 165.336 221.697C165.269 221.763 165.231 221.854 165.231 221.948V237.009C165.231 237.103 165.269 237.194 165.336 237.26C165.402 237.327 165.493 237.364 165.587 237.364H179.629C179.722 237.364 179.814 237.327 179.88 237.26C179.946 237.194 179.984 237.103 179.984 237.009V221.948C179.984 221.854 179.946 221.763 179.88 221.697C179.814 221.63 179.722 221.593 179.629 221.593V221.948H179.274V236.654H165.942V222.303H179.629V221.948Z" fill="#17252F"/>
<path d="M179.629 221.948H177.17V237.009H179.629V221.948Z" fill="#66B5FF"/>
<path d="M179.629 221.948V221.593H177.17C177.076 221.593 176.985 221.63 176.919 221.697C176.853 221.763 176.815 221.854 176.815 221.948V237.009C176.815 237.103 176.853 237.194 176.919 237.26C176.985 237.327 177.076 237.364 177.17 237.364H179.629C179.722 237.364 179.814 237.327 179.88 237.26C179.946 237.194 179.984 237.103 179.984 237.009V221.948C179.984 221.854 179.946 221.763 179.88 221.697C179.814 221.63 179.722 221.593 179.629 221.593V221.948H179.274V236.654H177.525V222.303H179.629V221.948Z" fill="#17252F"/>
<path d="M166.04 226.153H179.516C179.712 226.153 179.871 225.994 179.871 225.798C179.871 225.602 179.712 225.443 179.516 225.443H166.04C165.844 225.443 165.685 225.602 165.685 225.798C165.685 225.994 165.844 226.153 166.04 226.153Z" fill="#17252F"/>
<path d="M166.04 228.984H179.516C179.712 228.984 179.871 228.826 179.871 228.629C179.871 228.433 179.712 228.274 179.516 228.274H166.04C165.844 228.274 165.685 228.433 165.685 228.629C165.685 228.826 165.844 228.984 166.04 228.984Z" fill="#17252F"/>
<path d="M166.04 231.816H179.516C179.712 231.816 179.871 231.657 179.871 231.461C179.871 231.265 179.712 231.105 179.516 231.105H166.04C165.844 231.105 165.685 231.265 165.685 231.461C165.685 231.657 165.844 231.816 166.04 231.816Z" fill="#17252F"/>
<path d="M166.04 234.647H179.516C179.712 234.647 179.871 234.488 179.871 234.291C179.871 234.095 179.712 233.936 179.516 233.936H166.04C165.844 233.936 165.685 234.095 165.685 234.291C165.685 234.488 165.844 234.647 166.04 234.647Z" fill="#17252F"/>
<path d="M171.589 269.51H179.742V239.841H171.589V269.51Z" fill="#17252F"/>
<path d="M171.589 269.511V269.866H179.742C179.836 269.866 179.927 269.828 179.993 269.762C180.06 269.696 180.097 269.605 180.097 269.511V239.841C180.097 239.747 180.06 239.656 179.993 239.59C179.927 239.524 179.836 239.486 179.742 239.486H171.589C171.496 239.486 171.404 239.524 171.338 239.59C171.272 239.656 171.233 239.747 171.233 239.841V269.511C171.233 269.605 171.272 269.696 171.338 269.762C171.404 269.828 171.496 269.866 171.589 269.866V269.511H171.944V240.196H179.387V269.155H171.589V269.511Z" fill="#17252F"/>
<path d="M163.11 283.494H178.551V265.816H163.11V283.494Z" fill="white"/>
<path d="M163.11 283.494V283.849H178.551C178.644 283.849 178.736 283.812 178.802 283.746C178.868 283.679 178.906 283.588 178.906 283.494V265.816C178.906 265.723 178.868 265.631 178.802 265.565C178.736 265.499 178.644 265.461 178.551 265.461H163.11C163.016 265.461 162.924 265.499 162.858 265.565C162.792 265.631 162.755 265.723 162.755 265.816V283.494C162.755 283.588 162.792 283.679 162.858 283.746C162.924 283.812 163.016 283.849 163.11 283.849V283.494H163.465V266.171H178.195V283.139H163.11V283.494Z" fill="#17252F"/>
<path d="M165.647 283.494H166.956V272.259H165.647V283.494Z" fill="#C3C5C2"/>
<path d="M165.647 283.494V283.849H166.956C167.049 283.849 167.141 283.812 167.207 283.746C167.273 283.679 167.312 283.588 167.312 283.494V272.259C167.312 272.166 167.273 272.074 167.207 272.008C167.141 271.942 167.049 271.904 166.956 271.904H165.647C165.553 271.904 165.462 271.942 165.396 272.008C165.329 272.074 165.292 272.166 165.292 272.259V283.494C165.292 283.588 165.329 283.679 165.396 283.746C165.462 283.812 165.553 283.849 165.647 283.849V283.494H166.002V272.615H166.601V283.139H165.647V283.494Z" fill="#17252F"/>
<path d="M168.167 283.494H169.476V272.259H168.167V283.494Z" fill="#C3C5C2"/>
<path d="M168.167 283.494V283.849H169.476C169.569 283.849 169.661 283.812 169.727 283.746C169.793 283.679 169.832 283.588 169.832 283.494V272.259C169.832 272.166 169.793 272.074 169.727 272.008C169.661 271.942 169.569 271.904 169.476 271.904H168.167C168.073 271.904 167.982 271.942 167.915 272.008C167.849 272.074 167.812 272.166 167.812 272.259V283.494C167.812 283.588 167.849 283.679 167.915 283.746C167.982 283.812 168.073 283.849 168.167 283.849V283.494H168.522V272.615H169.121V283.139H168.167V283.494Z" fill="#17252F"/>
<path d="M170.687 283.494H171.996V272.259H170.687V283.494Z" fill="#C3C5C2"/>
<path d="M170.687 283.494V283.849H171.996C172.089 283.849 172.181 283.812 172.247 283.746C172.313 283.679 172.352 283.588 172.352 283.494V272.259C172.352 272.166 172.313 272.074 172.247 272.008C172.181 271.942 172.089 271.904 171.996 271.904H170.687C170.593 271.904 170.502 271.942 170.436 272.008C170.369 272.074 170.332 272.166 170.332 272.259V283.494C170.332 283.588 170.369 283.679 170.436 283.746C170.502 283.812 170.593 283.849 170.687 283.849V283.494H171.042V272.615H171.641V283.139H170.687V283.494Z" fill="#17252F"/>
<path d="M174.929 283.494H178.551V265.816H174.929V283.494Z" fill="white"/>
<path d="M174.929 283.494V283.849H178.55C178.644 283.849 178.736 283.812 178.802 283.746C178.868 283.679 178.906 283.588 178.906 283.494V265.816C178.906 265.723 178.868 265.631 178.802 265.565C178.736 265.499 178.644 265.461 178.55 265.461H174.929C174.836 265.461 174.744 265.499 174.678 265.565C174.612 265.631 174.574 265.723 174.574 265.816V283.494C174.574 283.588 174.612 283.679 174.678 283.746C174.744 283.812 174.836 283.849 174.929 283.849V283.494H175.284V266.171H178.195V283.139H174.929V283.494Z" fill="#17252F"/>
<path d="M171.042 269.88H173.35L175.462 241.273H178.389V283.459H182.451V235.747H172.212L171.042 269.88Z" fill="#66B5FF"/>
<path d="M171.042 269.88V270.235H173.35C173.536 270.235 173.69 270.093 173.704 269.906L175.793 241.629H178.034V283.459C178.034 283.553 178.071 283.645 178.137 283.711C178.203 283.777 178.295 283.815 178.389 283.815H182.451C182.545 283.815 182.637 283.777 182.703 283.711C182.769 283.645 182.807 283.553 182.807 283.459V235.747C182.807 235.654 182.769 235.563 182.703 235.496C182.637 235.43 182.545 235.392 182.451 235.392H172.212C172.02 235.392 171.864 235.543 171.857 235.735L170.687 269.868C170.683 269.964 170.719 270.058 170.786 270.126C170.853 270.196 170.945 270.235 171.042 270.235V269.88L171.397 269.892L172.555 236.103H182.096V283.104H178.744V241.273C178.744 241.18 178.706 241.089 178.64 241.023C178.573 240.957 178.482 240.918 178.389 240.918H175.462C175.276 240.918 175.122 241.062 175.109 241.247L173.02 269.525H171.042V269.88Z" fill="#17252F"/>
<path d="M171.042 269.88H161.68L160.51 235.747H172.212L171.042 269.88Z" fill="#17252F"/>
<path d="M171.042 269.88V269.525H162.023L160.877 236.103H171.844L170.686 269.868L171.042 269.88L171.397 269.892L172.567 235.759C172.571 235.664 172.534 235.57 172.468 235.501C172.401 235.431 172.308 235.392 172.212 235.392H160.51C160.413 235.392 160.321 235.431 160.254 235.501C160.187 235.57 160.151 235.664 160.154 235.759L161.324 269.892C161.332 270.084 161.488 270.235 161.68 270.235H171.042C171.233 270.235 171.39 270.084 171.397 269.892L171.042 269.88Z" fill="#17252F"/>
<path d="M210.045 176.021C210.045 176.021 212.56 175.518 213.007 176.859C213.454 178.2 213.063 181.665 212.616 183.118C212.169 184.571 210.94 184.962 210.269 184.907C209.598 184.85 208.705 184.069 208.705 184.069C208.705 184.069 209.598 181.665 209.654 179.318C209.71 176.971 210.045 176.021 210.045 176.021Z" fill="white"/>
<path d="M210.045 176.021L210.115 176.37L210.185 176.357C210.328 176.333 210.677 176.284 211.07 176.284C211.42 176.283 211.804 176.325 212.098 176.438C212.396 176.556 212.582 176.712 212.67 176.971C212.788 177.319 212.851 177.924 212.85 178.609C212.852 180.122 212.568 182.073 212.277 183.014C212.088 183.621 211.762 183.995 211.409 184.232C211.057 184.468 210.668 184.558 210.395 184.556L210.298 184.553C210.082 184.541 209.713 184.361 209.431 184.17C209.288 184.076 209.162 183.982 209.074 183.913L208.972 183.83L208.938 183.801L208.705 184.069L209.037 184.193C209.042 184.173 209.949 181.754 210.009 179.327C210.037 178.168 210.133 177.361 210.221 176.849C210.265 176.593 210.306 176.411 210.336 176.295L210.371 176.17L210.379 176.143L210.381 176.139L210.045 176.021L209.711 175.903C209.696 175.943 209.355 176.931 209.299 179.31C209.272 180.441 209.041 181.608 208.814 182.485C208.701 182.924 208.59 183.291 208.507 183.548C208.465 183.675 208.431 183.776 208.408 183.844C208.383 183.912 208.371 183.945 208.371 183.945C208.32 184.084 208.359 184.239 208.47 184.336C208.478 184.343 208.711 184.546 209.039 184.763C209.372 184.978 209.785 185.216 210.239 185.261H210.24L210.395 185.267C210.81 185.266 211.321 185.143 211.803 184.823C212.283 184.505 212.724 183.981 212.955 183.223C213.279 182.165 213.558 180.21 213.56 178.609C213.559 177.881 213.505 177.236 213.345 176.747C213.178 176.24 212.77 175.931 212.351 175.775C211.928 175.614 211.472 175.575 211.07 175.573C210.469 175.574 209.99 175.67 209.976 175.673C209.853 175.697 209.752 175.785 209.711 175.903L210.045 176.021Z" fill="#17252F"/>
<path d="M206.246 175.728C206.246 175.728 208.257 175.505 209.319 176.119C210.381 176.734 209.822 180.031 209.598 182.155C209.375 184.278 208.313 185.228 207.196 185.172C206.077 185.117 204.457 184.166 204.457 183.608C204.457 183.049 204.401 182.77 204.401 182.77C204.401 182.77 204.848 182.434 205.184 180.423C205.519 178.411 206.246 175.728 206.246 175.728Z" fill="white"/>
<path d="M206.246 175.728L206.285 176.081L206.341 176.076C206.456 176.065 206.739 176.044 207.094 176.044C207.743 176.039 208.642 176.129 209.141 176.427C209.257 176.49 209.384 176.666 209.468 176.988C209.553 177.305 209.591 177.737 209.591 178.225C209.591 179.421 209.37 180.939 209.245 182.118C209.142 183.1 208.852 183.785 208.495 184.211C208.136 184.637 207.724 184.817 207.289 184.82L207.213 184.818C206.743 184.798 206.087 184.564 205.584 184.271C205.332 184.126 205.116 183.967 204.978 183.828C204.909 183.76 204.86 183.697 204.835 183.654L204.813 183.608H204.812C204.812 183.025 204.754 182.723 204.749 182.701L204.401 182.77L204.614 183.054C204.735 182.955 205.189 182.531 205.534 180.481C205.699 179.491 205.963 178.322 206.185 177.405C206.297 176.946 206.398 176.549 206.47 176.268C206.543 175.987 206.588 175.822 206.588 175.821L206.246 175.728L205.903 175.636C205.901 175.641 205.174 178.324 204.833 180.364C204.669 181.348 204.479 181.906 204.344 182.203C204.276 182.351 204.222 182.433 204.192 182.473L204.168 182.502L204.293 182.625L204.188 182.486L204.168 182.502L204.293 182.625L204.188 182.486C204.078 182.568 204.026 182.705 204.053 182.839L204.054 182.844C204.061 182.885 204.102 183.139 204.102 183.608C204.113 183.923 204.283 184.13 204.477 184.332C204.778 184.629 205.211 184.904 205.69 185.123C206.17 185.341 206.69 185.502 207.178 185.528L207.289 185.53C207.936 185.533 208.57 185.235 209.041 184.666C209.514 184.099 209.837 183.275 209.952 182.193C210.073 181.033 210.3 179.501 210.301 178.225C210.301 177.702 210.264 177.22 210.155 176.806C210.045 176.397 209.858 176.025 209.497 175.812C208.766 175.398 207.799 175.338 207.094 175.334C206.583 175.334 206.215 175.374 206.206 175.375C206.061 175.391 205.941 175.495 205.903 175.636L206.246 175.728Z" fill="#17252F"/>
<path d="M202.099 176.223C202.099 176.223 203.743 175.476 205.089 176.073C206.435 176.671 205.929 177.615 205.63 180.904C205.332 184.193 204.234 185.319 202.892 185.039C202.002 184.854 200.551 184.494 200.428 183.199C200.305 181.904 202.099 176.223 202.099 176.223Z" fill="white"/>
<path d="M202.099 176.223L202.246 176.546L202.275 176.534C202.424 176.47 203.14 176.195 203.908 176.197C204.259 176.197 204.618 176.252 204.945 176.398C205.248 176.534 205.394 176.661 205.483 176.808C205.573 176.955 205.622 177.165 205.621 177.504C205.624 178.164 205.427 179.234 205.276 180.872C205.146 182.325 204.851 183.324 204.484 183.921C204.302 184.221 204.106 184.42 203.907 184.544C203.708 184.668 203.505 184.724 203.274 184.725C203.176 184.725 203.073 184.714 202.965 184.691C202.528 184.602 201.974 184.467 201.546 184.226C201.332 184.105 201.151 183.961 201.021 183.791C200.892 183.62 200.807 183.425 200.781 183.166L200.777 183.056C200.775 182.735 200.875 182.122 201.031 181.423C201.263 180.369 201.615 179.093 201.909 178.083C202.203 177.073 202.437 176.332 202.437 176.33L202.099 176.223L201.76 176.116C201.76 176.119 201.339 177.449 200.918 178.974C200.707 179.737 200.496 180.548 200.337 181.27C200.178 181.995 200.068 182.617 200.067 183.056L200.074 183.233C200.11 183.621 200.253 183.957 200.457 184.223C200.766 184.624 201.195 184.873 201.62 185.046C202.047 185.219 202.48 185.316 202.82 185.387C202.971 185.419 203.123 185.436 203.274 185.436C203.627 185.436 203.975 185.341 204.285 185.147C204.751 184.853 205.122 184.356 205.402 183.665C205.684 182.971 205.88 182.074 205.984 180.936C206.13 179.322 206.329 178.286 206.331 177.504C206.331 177.105 206.277 176.751 206.092 176.442C205.907 176.133 205.61 175.915 205.233 175.748C204.791 175.552 204.333 175.486 203.908 175.486C202.847 175.489 201.977 175.891 201.952 175.899C201.86 175.941 201.79 176.021 201.76 176.116L202.099 176.223Z" fill="#17252F"/>
<path d="M200.864 179.143C200.864 179.143 201.395 177.341 200.864 175.962C200.334 174.585 197.577 174.372 197.154 175.432C196.73 176.493 196.094 181.794 196.517 182.43C196.941 183.066 198.762 183.632 199.485 183.066C200.209 182.5 200.864 179.143 200.864 179.143Z" fill="white"/>
<path d="M200.864 179.143L201.205 179.243C201.21 179.224 201.454 178.401 201.455 177.4C201.454 176.9 201.394 176.353 201.195 175.835C200.999 175.327 200.584 174.973 200.116 174.745C199.647 174.518 199.112 174.408 198.604 174.407C198.229 174.408 197.868 174.467 197.553 174.603C197.24 174.738 196.959 174.964 196.823 175.301C196.725 175.551 196.637 175.916 196.546 176.381C196.278 177.768 196.023 179.965 196.022 181.343C196.022 181.622 196.032 181.868 196.058 182.076C196.088 182.287 196.112 182.451 196.221 182.627C196.449 182.956 196.821 183.181 197.252 183.363C197.684 183.539 198.174 183.653 198.643 183.654C199.022 183.653 199.399 183.581 199.704 183.346C199.987 183.113 200.155 182.767 200.334 182.35C200.845 181.11 201.209 179.223 201.212 179.211L200.864 179.143L200.516 179.075C200.516 179.076 200.476 179.28 200.404 179.599C200.296 180.078 200.117 180.811 199.902 181.465C199.795 181.792 199.678 182.1 199.561 182.339C199.449 182.578 199.322 182.749 199.266 182.787C199.154 182.879 198.928 182.945 198.643 182.944C198.294 182.945 197.873 182.851 197.522 182.706C197.169 182.566 196.887 182.356 196.813 182.233L196.773 182.259L196.815 182.237L196.813 182.233L196.773 182.259L196.815 182.237C196.809 182.232 196.775 182.117 196.759 181.959C196.741 181.799 196.732 181.587 196.733 181.343C196.732 180.479 196.844 179.211 196.996 178.071C197.071 177.501 197.157 176.96 197.244 176.517C197.328 176.075 197.419 175.722 197.483 175.565C197.528 175.452 197.636 175.342 197.836 175.255C198.033 175.168 198.307 175.117 198.604 175.118C199.006 175.117 199.45 175.21 199.806 175.384C200.165 175.559 200.424 175.805 200.533 176.09C200.687 176.492 200.745 176.959 200.744 177.4C200.744 177.842 200.689 178.258 200.633 178.561C200.604 178.712 200.577 178.835 200.556 178.919L200.531 179.014L200.523 179.043L200.516 179.075L200.864 179.143Z" fill="#17252F"/>
<path d="M288.777 176.184C288.777 176.184 282.798 170.724 279.661 166.279C276.524 161.833 272.567 160.257 269.042 159.143C265.517 158.029 262.875 159.736 262.995 161.647C263.113 163.558 265.02 164.834 265.02 164.834C265.02 164.834 263.176 174.034 263.909 175.835C264.642 177.637 264.037 179.044 265.092 180.694C266.146 182.343 268.276 183.452 274.815 184.408C281.353 185.365 282.149 185.381 282.149 185.381C282.149 185.381 298.766 212.831 302.577 216.08C306.388 219.329 313.918 219.633 316.606 216.936C319.293 214.239 319.383 204.085 317.981 202.087C316.579 200.087 288.777 176.184 288.777 176.184Z" fill="white"/>
<path d="M288.777 176.184L289.017 175.922C289.016 175.921 288.925 175.838 288.756 175.681C287.576 174.584 282.66 169.916 279.951 166.073C276.755 161.538 272.69 159.921 269.149 158.804C268.342 158.549 267.573 158.434 266.865 158.434C265.644 158.434 264.602 158.774 263.85 159.33C263.101 159.882 262.635 160.669 262.635 161.523L262.64 161.67V161.669C262.708 162.741 263.265 163.601 263.785 164.192C264.308 164.785 264.806 165.118 264.822 165.129L265.02 164.834L264.671 164.764C264.671 164.767 264.35 166.37 264.027 168.374C263.706 170.38 263.382 172.776 263.381 174.404C263.384 175.056 263.425 175.577 263.58 175.969C263.921 176.807 263.953 177.556 264.026 178.354C264.098 179.147 264.221 179.994 264.793 180.885C265.359 181.776 266.237 182.522 267.763 183.14C269.292 183.761 271.481 184.279 274.764 184.76C281.311 185.717 282.095 185.734 282.141 185.737L282.149 185.381L281.845 185.565C281.846 185.567 286.001 192.431 290.634 199.703C292.951 203.34 295.387 207.078 297.485 210.115C298.534 211.633 299.499 212.976 300.324 214.045C301.152 215.116 301.829 215.908 302.347 216.351C304.533 218.208 307.809 219.111 310.796 219.115C313.252 219.11 315.528 218.509 316.857 217.187C317.739 216.293 318.304 214.795 318.685 213.063C319.06 211.331 319.232 209.363 319.232 207.548C319.232 206.297 319.15 205.12 318.994 204.141C318.834 203.159 318.617 202.384 318.271 201.883C318.155 201.719 317.962 201.51 317.675 201.217C316.607 200.134 314.292 198.021 311.406 195.448C302.754 187.732 289.009 175.916 289.009 175.915L288.777 176.184L288.546 176.453C288.546 176.455 288.98 176.827 289.743 177.484C292.412 179.785 299.107 185.565 305.286 190.988C308.376 193.699 311.336 196.321 313.6 198.373C314.732 199.398 315.689 200.282 316.399 200.961C316.754 201.301 317.047 201.589 317.268 201.817C317.487 202.043 317.639 202.216 317.69 202.291C317.917 202.605 318.148 203.325 318.292 204.253C318.441 205.182 318.521 206.328 318.521 207.548C318.522 209.317 318.353 211.245 317.99 212.912C317.633 214.58 317.063 215.984 316.354 216.686C315.258 217.797 313.137 218.409 310.796 218.404C307.951 218.408 304.803 217.518 302.808 215.81C302.372 215.441 301.697 214.664 300.887 213.611C298.038 209.92 293.422 202.807 289.527 196.629C287.579 193.539 285.811 190.681 284.529 188.595C283.888 187.552 283.369 186.703 283.01 186.114C282.651 185.526 282.453 185.199 282.453 185.197C282.39 185.094 282.278 185.029 282.156 185.026H282.156C282.077 185.023 280.99 184.953 274.867 184.056C271.611 183.581 269.466 183.067 268.031 182.482C266.593 181.893 265.88 181.261 265.391 180.502C264.908 179.744 264.806 179.063 264.734 178.289C264.662 177.521 264.63 176.666 264.238 175.701C264.149 175.495 264.089 175.012 264.092 174.404C264.091 172.863 264.409 170.474 264.729 168.487C264.889 167.492 265.049 166.596 265.169 165.948C265.288 165.301 265.368 164.905 265.368 164.904C265.396 164.763 265.336 164.618 265.217 164.539L265.202 164.528C265.114 164.467 264.662 164.137 264.232 163.622C263.799 163.106 263.396 162.412 263.349 161.625V161.624L263.346 161.523C263.346 160.935 263.663 160.354 264.273 159.901C264.881 159.45 265.776 159.144 266.865 159.144C267.496 159.144 268.193 159.246 268.935 159.481C272.444 160.594 276.292 162.126 279.37 166.483C282.547 170.981 288.529 176.437 288.538 176.446L288.546 176.453L288.777 176.184Z" fill="#17252F"/>
<path d="M99.6905 97.7998C93.5282 96.5471 87.2507 96.7666 81.1365 98.9121C78.6372 99.7888 76.2675 101.048 73.8777 102.215C72.4945 102.89 71.1726 103.093 69.7791 102.334C67.7271 101.216 67.233 98.3407 68.8685 96.6615C69.4185 96.0977 70.1023 95.6319 70.7935 95.2408C78.8834 90.6571 87.5544 88.7184 96.8198 89.719C109.527 91.0885 119.545 97.1639 127.211 107.28C127.979 108.294 128.628 109.364 128.439 110.741C128.223 112.32 127.378 113.391 125.886 113.888C124.373 114.391 123.044 113.934 121.974 112.815C121.343 112.156 120.837 111.379 120.265 110.662C115.142 104.235 108.6 100.013 100.614 98.0375C100.364 97.9756 100.115 97.909 99.6905 97.7998Z" fill="#FC733D"/>
<mask id="mask0_334_2919" style="mask-type:alpha" maskUnits="userSpaceOnUse" x="67" y="89" width="62" height="26">
<path d="M99.6905 97.7998C93.5282 96.5471 87.2507 96.7666 81.1365 98.9121C78.6372 99.7888 76.2675 101.048 73.8777 102.215C72.4945 102.89 71.1726 103.093 69.7791 102.334C67.7271 101.216 67.233 98.3407 68.8685 96.6615C69.4185 96.0977 70.1023 95.6319 70.7935 95.2408C78.8834 90.6571 87.5544 88.7184 96.8198 89.719C109.527 91.0885 119.545 97.1639 127.211 107.28C127.979 108.294 128.628 109.364 128.439 110.741C128.223 112.32 127.378 113.391 125.886 113.888C124.373 114.391 123.044 113.934 121.974 112.815C121.343 112.156 120.837 111.379 120.265 110.662C115.142 104.235 108.6 100.013 100.614 98.0375C100.364 97.9756 100.115 97.909 99.6905 97.7998Z" fill="#FC733D"/>
</mask>
<g mask="url(#mask0_334_2919)">
<path d="M74.7102 63.9365C77.05 61.2705 81.3608 61.9035 82.8353 65.1297L93.9398 89.4267C95.5513 92.9527 92.616 96.8626 88.7803 96.2993L60.0547 92.0809C56.219 91.5176 54.5318 86.9288 57.089 84.015L74.7102 63.9365Z" fill="#E4361F"/>
</g>
<path d="M113.843 121.517C112.694 121.297 111.887 120.609 111.236 119.686C108.615 115.974 105.292 113.052 101.05 111.406C94.4993 108.865 88.0022 109.035 81.7005 112.362C80.9658 112.75 80.2485 113.176 79.4898 113.512C77.6641 114.324 75.615 113.639 74.6616 111.939C73.7285 110.275 74.1796 108.19 75.8092 107.069C79.4378 104.572 83.4829 103.098 87.8199 102.466C96.231 101.241 103.855 103.227 110.672 108.279C113.458 110.343 115.801 112.85 117.69 115.761C118.578 117.129 118.527 118.784 117.604 120.04C116.665 121.32 115.396 121.794 113.843 121.517Z" fill="#FC733D"/>
<path d="M91.6816 132.496C87.6927 131.635 85.3173 128.038 86.1548 124.126C86.9422 120.434 90.7842 117.913 94.4217 118.702C98.4264 119.573 100.783 123.26 99.8889 127.26C99.0728 130.917 95.3561 133.288 91.6816 132.496Z" fill="#E4361F"/>
<path d="M319.686 305.55H0.70387C0.507657 305.55 0.348633 305.709 0.348633 305.906C0.348633 306.101 0.507657 306.261 0.70387 306.261H319.686C319.882 306.261 320.041 306.101 320.041 305.906C320.041 305.709 319.882 305.55 319.686 305.55Z" fill="#17252F"/>
<path d="M74.3817 61.3494C76.7215 58.6833 81.0323 59.3164 82.5068 62.5426L93.6113 86.8395C95.2228 90.3656 92.2875 94.2755 88.4518 93.7122L59.7262 89.4937C55.8905 88.9304 54.2033 84.3417 56.7606 81.4279L74.3817 61.3494Z" fill="#FFC138"/>
<rect x="77.2931" y="81.568" width="3.91307" height="13.2066" rx="1.95653" transform="rotate(-171.646 77.2931 81.568)" fill="#E4361F"/>
<rect x="76.6823" y="87.4105" width="4.4022" height="4.4022" rx="2.2011" transform="rotate(-171.646 76.6823 87.4105)" fill="#E4361F"/>
<rect x="122.679" y="60.6201" width="2.38731" height="18.0711" rx="1.19366" transform="rotate(25.5711 122.679 60.6201)" fill="#FFC138"/>
<rect width="2.43416" height="12.8879" rx="1.21708" transform="matrix(0.992771 0.120022 -0.23481 0.972041 109.545 64.1029)" fill="#FFC138"/>
<rect width="2.43416" height="12.8879" rx="1.21708" transform="matrix(0.716316 0.697776 -0.609617 0.792696 128.806 72.4554)" fill="#FFC138"/>
</svg>
